<svg width="502" height="502" viewBox="0 0 502 502" fill="none" xmlns="http://www.w3.org/2000/svg">
<path d="M488 465.758H14C8.47656 465.758 4 461.277 4 455.758V46C4 40.4766 8.47656 36 14 36H488C493.523 36 498 40.4766 498 46V455.758C498 461.281 493.523 465.758 488 465.758Z" fill="#F85252"/>
<path d="M498 106.359V455.758C498 461.277 493.52 465.758 488 465.758H14C8.48047 465.758 4 461.277 4 455.758V45.9961C4 40.4766 8.48047 35.9961 14 35.9961H133.898L184.922 99.3984C188.461 103.797 193.82 106.359 199.48 106.359H498Z" fill="#D8D6D7"/>
<path d="M498 106.359V455.758C498 461.281 493.523 465.758 488 465.758H44.4609C38.9375 465.758 34.4609 461.281 34.4609 455.758V45.9961C34.4609 40.4766 38.9375 35.9961 44.4609 35.9961H133.898L184.922 99.3984C188.461 103.797 193.82 106.359 199.48 106.359H498Z" fill="white"/>
<path d="M419.477 71.793C419.477 79.4102 413.301 85.5859 405.684 85.5859C398.066 85.5859 391.891 79.4102 391.891 71.793C391.891 64.1758 398.066 58 405.684 58C413.301 58 419.477 64.1758 419.477 71.793V71.793Z" fill="white"/>
<path d="M469.961 71.793C469.961 79.4102 463.785 85.5859 456.168 85.5859C448.551 85.5859 442.375 79.4102 442.375 71.793C442.375 64.1758 448.551 58 456.168 58C463.785 58 469.961 64.1758 469.961 71.793V71.793Z" fill="white"/>
<path d="M109.977 351.316C109.977 365.859 98.1875 377.648 83.6445 377.648C69.1016 377.648 57.3125 365.859 57.3125 351.316C57.3125 336.773 69.1016 324.984 83.6445 324.984C98.1875 324.984 109.977 336.773 109.977 351.316V351.316Z" fill="#F85252"/>
<path d="M434.688 290.219H67.3125C61.7891 290.219 57.3125 285.738 57.3125 280.219V161.113C57.3125 155.594 61.7891 151.113 67.3125 151.113H434.688C440.211 151.113 444.688 155.594 444.688 161.113V280.219C444.688 285.738 440.211 290.219 434.688 290.219Z" fill="#D8D6D7"/>
<path d="M316.16 351.316C316.16 365.859 304.371 377.648 289.828 377.648C275.289 377.648 263.496 365.859 263.496 351.316C263.496 336.773 275.289 324.984 289.828 324.984C304.371 324.984 316.16 336.773 316.16 351.316V351.316Z" fill="#F85252"/>
<path d="M203.688 185.602L223.535 259.672C225.528 267.105 234.821 269.598 240.266 264.152L294.485 209.93C299.93 204.484 297.438 195.191 290.004 193.199L215.938 173.355C208.5 171.363 201.696 178.164 203.688 185.602V185.602Z" fill="#40C4DF"/>
<path d="M295.734 248.891L279.223 265.398C275.316 269.305 268.988 269.305 265.082 265.398L252.051 252.367L282.703 221.715L295.734 234.746C299.637 238.652 299.637 244.984 295.734 248.891Z" fill="#1C868E"/>
<path d="M488 32C469.164 32 33.2266 32 14.4375 32H14C6.28125 32 0 38.2812 0 46V455.758C0 463.477 6.28125 469.758 14 469.758H488C495.719 469.758 502 463.477 502 455.758V46C502 38.2812 495.719 32 488 32ZM494 455.316C494 458.867 491.113 461.758 487.559 461.758H14.4375C10.8867 461.758 8 458.867 8 455.316V46.4375C8 42.8867 10.8867 40 14.4375 40H131.984L181.809 101.898C186.133 107.273 192.57 110.355 199.473 110.355H494V455.316ZM494 102.355H199.469C195.008 102.355 190.84 100.359 188.039 96.8828L142.254 40H488C491.309 40 494 42.6914 494 46V102.355Z" fill="#491352"/>
<path d="M116.52 74.1133C116.52 71.9063 114.727 70.1133 112.52 70.1133H43.4336C41.2266 70.1133 39.4336 71.9063 39.4336 74.1133C39.4336 76.3203 41.2266 78.1133 43.4336 78.1133H112.52C114.727 78.1133 116.52 76.3203 116.52 74.1133Z" fill="#491352"/>
<path d="M405.688 54C395.875 54 387.895 61.9805 387.895 71.793C387.895 81.6016 395.875 89.5859 405.688 89.5859C415.496 89.5859 423.477 81.6016 423.477 71.793C423.477 61.9805 415.496 54 405.688 54ZM405.688 81.5859C400.285 81.5859 395.895 77.1953 395.895 71.793C395.895 66.3945 400.285 62.0039 405.688 62.0039C411.086 62.0039 415.477 66.3945 415.477 71.793C415.477 77.1914 411.086 81.5859 405.688 81.5859Z" fill="#491352"/>
<path d="M83.6445 381.648C100.371 381.648 113.977 368.043 113.977 351.316C113.977 334.59 100.371 320.98 83.6445 320.98C66.918 320.98 53.3086 334.59 53.3086 351.316C53.3086 368.043 66.918 381.648 83.6445 381.648ZM83.6445 328.984C95.957 328.984 105.977 339.004 105.977 351.316C105.977 363.633 95.957 373.648 83.6445 373.648C71.3281 373.648 61.3086 363.633 61.3086 351.316C61.3125 339.004 71.3281 328.984 83.6445 328.984Z" fill="#491352"/>
<path d="M456.168 54C446.359 54 438.375 61.9805 438.375 71.793C438.375 81.6016 446.355 89.5859 456.168 89.5859C465.98 89.5859 473.961 81.6016 473.961 71.793C473.961 61.9805 465.977 54 456.168 54V54ZM456.168 81.5859C450.77 81.5859 446.375 77.1953 446.375 71.793C446.375 66.3945 450.77 62.0039 456.168 62.0039C461.566 62.0039 465.961 66.3945 465.961 71.793C465.961 77.1914 461.566 81.5859 456.168 81.5859V81.5859Z" fill="#491352"/>
<path d="M53.3125 161.113V280.219C53.3125 287.938 59.5938 294.219 67.3125 294.219H434.688C442.406 294.219 448.688 287.938 448.688 280.219V161.113C448.688 153.395 442.406 147.113 434.688 147.113H67.3125C59.5938 147.113 53.3125 153.395 53.3125 161.113ZM440.688 161.113V280.219C440.688 283.527 437.996 286.219 434.688 286.219H67.3125C64.0039 286.219 61.3125 283.527 61.3125 280.219V161.113C61.3125 157.805 64.0039 155.113 67.3125 155.113H434.688C437.996 155.113 440.688 157.805 440.688 161.113Z" fill="#491352"/>
<path d="M134.203 328.984H238.504C243.785 328.984 243.793 320.984 238.504 320.984H134.203C131.996 320.984 130.203 322.777 130.203 324.984C130.203 327.191 131.996 328.984 134.203 328.984Z" fill="#491352"/>
<path d="M134.203 355.316H238.504C243.785 355.316 243.793 347.316 238.504 347.316H134.203C131.996 347.316 130.203 349.109 130.203 351.316C130.203 353.523 131.996 355.316 134.203 355.316Z" fill="#491352"/>
<path d="M134.203 373.648C128.922 373.648 128.91 381.648 134.203 381.648H238.504C243.785 381.648 243.793 373.648 238.504 373.648H134.203Z" fill="#491352"/>
<path d="M320.16 351.316C320.16 334.59 306.555 320.98 289.828 320.98C273.105 320.98 259.496 334.59 259.496 351.316C259.496 368.043 273.105 381.648 289.828 381.648C306.555 381.648 320.16 368.043 320.16 351.316V351.316ZM267.496 351.316C267.496 339.004 277.516 328.98 289.828 328.98C302.145 328.98 312.16 339 312.16 351.316C312.16 363.629 302.145 373.648 289.828 373.648C277.516 373.648 267.496 363.629 267.496 351.316Z" fill="#491352"/>
<path d="M444.688 320.984H340.391C335.105 320.984 335.098 328.984 340.391 328.984H444.688C449.973 328.984 449.98 320.984 444.688 320.984Z" fill="#491352"/>
<path d="M444.688 347.316H340.391C335.105 347.316 335.098 355.316 340.391 355.316H444.688C449.973 355.316 449.98 347.316 444.688 347.316Z" fill="#491352"/>
<path d="M444.688 373.648H340.391C335.105 373.648 335.098 381.648 340.391 381.648H444.688C449.973 381.648 449.98 373.648 444.688 373.648Z" fill="#491352"/>
<path d="M444.688 404.879H57.3125C52.0273 404.879 52.0195 412.879 57.3125 412.879H444.688C449.973 412.879 449.98 404.879 444.688 404.879Z" fill="#491352"/>
<path d="M444.688 432.879H57.3125C52.0273 432.879 52.0195 440.879 57.3125 440.879H444.688C449.973 440.879 449.98 432.879 444.688 432.879Z" fill="#491352"/>
<path d="M219.672 260.707C222.465 271.129 235.477 274.598 243.094 266.98L252.051 258.023L262.254 268.23C267.711 273.688 276.598 273.688 282.051 268.23L298.563 251.719C304.02 246.262 304.02 237.379 298.563 231.922L288.359 221.719C296.66 213.414 303.504 208.82 300.941 199.238C299.629 194.348 295.93 190.648 291.039 189.34L216.973 169.492C206.551 166.699 197.035 176.227 199.824 186.637L219.672 260.707ZM292.906 237.574C295.242 239.914 295.242 243.723 292.906 246.063L276.395 262.57C274.059 264.906 270.254 264.91 267.91 262.57L257.707 252.367L282.699 227.371L292.906 237.574ZM214.902 177.219L288.969 197.063C293.43 198.258 294.93 203.832 291.66 207.102C274.637 224.125 254.215 244.547 237.441 261.324C234.176 264.594 228.598 263.094 227.398 258.633L207.555 184.566C206.359 180.109 210.43 176.023 214.902 177.219V177.219Z" fill="#491352"/>
</svg>
