<svg width="512" height="512" viewBox="0 0 512 512" fill="none" xmlns="http://www.w3.org/2000/svg">
<g clip-path="url(#clip0)">
<path d="M483.31 512H28.6897C12.8441 512 0 499.156 0 483.31V97.1034H512V483.31C512 499.156 499.156 512 483.31 512Z" fill="#E7ECED"/>
<path d="M35.3105 150.069H467.862V326.621H35.3105V150.069Z" fill="#DD352E"/>
<path d="M512 105.931H0V28.6897C0 12.8441 12.8441 0 28.6897 0H483.31C499.156 0 512 12.8441 512 28.6897V105.931Z" fill="#556080"/>
<path d="M35.3105 35.3103H70.6209V70.6206H35.3105V35.3103Z" fill="#DD352E"/>
<path d="M105.931 35.3103H141.241V70.6206H105.931V35.3103Z" fill="#EBBA16"/>
<path d="M176.552 35.3103H211.862V70.6206H176.552V35.3103Z" fill="#23A24D"/>
<path d="M370.758 211.862H229.517C224.644 211.862 220.689 207.916 220.689 203.034C220.689 198.153 224.644 194.207 229.517 194.207H370.758C375.631 194.207 379.586 198.153 379.586 203.034C379.586 207.916 375.631 211.862 370.758 211.862Z" fill="white"/>
<path d="M432.552 211.862H406.069C401.196 211.862 397.241 207.916 397.241 203.034C397.241 198.153 401.196 194.207 406.069 194.207H432.552C437.424 194.207 441.379 198.153 441.379 203.034C441.379 207.916 437.424 211.862 432.552 211.862Z" fill="white"/>
<path d="M370.758 282.483H229.517C224.644 282.483 220.689 278.537 220.689 273.655C220.689 268.774 224.644 264.828 229.517 264.828H370.758C375.631 264.828 379.586 268.774 379.586 273.655C379.586 278.537 375.631 282.483 370.758 282.483Z" fill="white"/>
<path d="M432.552 282.483H406.069C401.196 282.483 397.241 278.537 397.241 273.655C397.241 268.774 401.196 264.828 406.069 264.828H432.552C437.424 264.828 441.379 268.774 441.379 273.655C441.379 278.537 437.424 282.483 432.552 282.483Z" fill="white"/>
<path d="M432.551 247.172H291.31C286.437 247.172 282.482 243.226 282.482 238.345C282.482 233.463 286.437 229.517 291.31 229.517H432.551C437.424 229.517 441.379 233.463 441.379 238.345C441.379 243.226 437.424 247.172 432.551 247.172Z" fill="white"/>
<path d="M256 247.172H229.517C224.644 247.172 220.689 243.226 220.689 238.345C220.689 233.463 224.644 229.517 229.517 229.517H256C260.873 229.517 264.827 233.463 264.827 238.345C264.827 243.226 260.873 247.172 256 247.172Z" fill="white"/>
<path d="M88.276 467.862H35.3105C30.4377 467.862 26.4829 463.916 26.4829 459.034C26.4829 454.153 30.4377 450.207 35.3105 450.207H88.276C93.1488 450.207 97.1036 454.153 97.1036 459.034C97.1036 463.916 93.1488 467.862 88.276 467.862Z" fill="#23A24D"/>
<path d="M35.3105 370.759H88.2761V423.724H35.3105V370.759Z" fill="#EBBA16"/>
<path d="M300.138 467.862H247.172C242.299 467.862 238.345 463.916 238.345 459.034C238.345 454.153 242.299 450.207 247.172 450.207H300.138C305.011 450.207 308.965 454.153 308.965 459.034C308.965 463.916 305.011 467.862 300.138 467.862Z" fill="#EBBA16"/>
<path d="M247.172 370.759H300.138V423.724H247.172V370.759Z" fill="#C5411E"/>
<path d="M194.207 467.862H141.241C136.368 467.862 132.414 463.916 132.414 459.034C132.414 454.153 136.368 450.207 141.241 450.207H194.207C199.08 450.207 203.034 454.153 203.034 459.034C203.034 463.916 199.08 467.862 194.207 467.862Z" fill="#DD352E"/>
<path d="M141.241 370.759H194.207V423.724H141.241V370.759Z" fill="#366DB6"/>
<path d="M70.6206 185.379H194.207V291.31H70.6206V185.379Z" fill="white"/>
<path d="M158.897 220.69L194.207 256V291.31H123.586V256L158.897 220.69Z" fill="#188439"/>
<path d="M114.759 238.345L70.6206 291.31H158.896L114.759 238.345Z" fill="#23A24D"/>
<path d="M344.276 361.931H467.862V467.862H344.276V361.931Z" fill="white"/>
<path d="M432.552 397.241L467.862 432.552V467.862H397.241V432.552L432.552 397.241Z" fill="#188439"/>
<path d="M388.414 414.896L344.276 467.862H432.552L388.414 414.896Z" fill="#23A24D"/>
</g>
<defs>
<clipPath id="clip0">
<rect width="512" height="512" fill="white"/>
</clipPath>
</defs>
</svg>
