<svg width="505" height="192" viewBox="0 0 505 192" fill="none" xmlns="http://www.w3.org/2000/svg">
<path d="M416.5 0H88.5C39.6228 0 0 39.6228 0 88.5C0 137.377 39.6228 177 88.5 177H416.5C465.377 177 505 137.377 505 88.5C505 39.6228 465.377 0 416.5 0Z" fill="#EA2F53"/>
<path d="M343.99 64.66C343.99 64.66 377.07 72.3 389.79 107.92L316 141L343.99 64.66Z" fill="#F2B544" stroke="black" stroke-miterlimit="10"/>
<path d="M316.81 136.24L378.34 88.84C378.34 88.84 385.57 97.79 388.34 106.04L316.81 136.24Z" fill="#F2A341"/>
<path d="M378.34 12.5C378.34 12.5 370.71 15.04 373.25 20.13C373.25 20.13 378.34 22.68 378.34 30.31C378.34 30.31 380.89 35.4 380.89 45.58C380.89 45.58 378.34 60.85 375.8 60.85C375.8 60.85 370.71 71.03 380.89 65.94C380.89 65.94 388.52 48.12 388.52 43.04C388.52 43.04 385.98 20.13 383.43 17.59L378.34 12.5Z" fill="#1A1A1A"/>
<path d="M395.63 77.5C395.63 77.5 398.63 84.97 403.55 82.13C403.55 82.13 405.79 76.9 413.42 76.46C413.42 76.46 418.35 73.62 428.51 73.02C428.51 73.02 443.9 74.67 444.05 77.21C444.05 77.21 454.51 81.7 448.83 71.83C448.83 71.83 430.6 65.25 425.52 65.55C425.52 65.55 402.81 69.43 400.42 72.12L395.63 77.5Z" fill="#1A1A1A"/>
<path d="M396.15 65.94C398.961 65.94 401.24 63.6611 401.24 60.85C401.24 58.0389 398.961 55.76 396.15 55.76C393.338 55.76 391.06 58.0389 391.06 60.85C391.06 63.6611 393.338 65.94 396.15 65.94Z" fill="#1A1A1A"/>
<path d="M408.88 50.67C411.691 50.67 413.97 48.3911 413.97 45.58C413.97 42.7689 411.691 40.49 408.88 40.49C406.069 40.49 403.79 42.7689 403.79 45.58C403.79 48.3911 406.069 50.67 408.88 50.67Z" fill="#00A99D"/>
<path d="M396.16 30.31C398.971 30.31 401.25 28.0311 401.25 25.22C401.25 22.4089 398.971 20.13 396.16 20.13C393.349 20.13 391.07 22.4089 391.07 25.22C391.07 28.0311 393.349 30.31 396.16 30.31Z" fill="#FF1D25"/>
<path d="M362.9 42.5C362.9 42.5 360.53 43.86 361.71 45.39C362.346 45.6337 362.903 46.0467 363.321 46.5843C363.739 47.122 364.001 47.7637 364.08 48.44C365.042 49.9294 365.676 51.6066 365.94 53.36C365.94 53.36 366.11 58.62 365.26 58.79C365.26 58.79 364.26 62.52 367.26 60.15C367.26 60.15 368.63 53.7 368.26 52.01C368.26 52.01 365.89 44.54 364.88 43.86L362.9 42.5Z" fill="#1A1A1A"/>
<path d="M424.15 116.83C426.961 116.83 429.24 114.551 429.24 111.74C429.24 108.929 426.961 106.65 424.15 106.65C421.338 106.65 419.06 108.929 419.06 111.74C419.06 114.551 421.338 116.83 424.15 116.83Z" fill="#FBB03B"/>
<path d="M404.67 95.7799C404.67 95.7799 405.84 98.2499 407.45 97.1899C407.743 96.5737 408.199 96.0489 408.768 95.6719C409.337 95.2949 409.998 95.0799 410.68 95.0499C412.226 94.2142 413.928 93.7101 415.68 93.57C415.68 93.57 420.94 93.7999 421.04 94.6599C421.04 94.6599 424.69 95.9599 422.55 92.7299C422.55 92.7299 416.23 90.89 414.55 91.1C414.55 91.1 406.93 92.8899 406.18 93.8599L404.67 95.7799Z" fill="#1A1A1A"/>
<path d="M352.9 45.58C355.711 45.58 357.99 43.3012 357.99 40.49C357.99 37.6789 355.711 35.4 352.9 35.4C350.088 35.4 347.81 37.6789 347.81 40.49C347.81 43.3012 350.088 45.58 352.9 45.58Z" fill="#29ABE2"/>
<path d="M155.897 105.312C155.328 105.312 155.043 106.406 155.043 108.593C155.043 110.279 155.328 111.122 155.897 111.122C156.467 111.122 156.752 109.926 156.752 107.533C156.752 106.052 156.467 105.312 155.897 105.312ZM133.681 105.312C133.111 105.312 132.826 106.406 132.826 108.593C132.826 110.279 133.111 111.122 133.681 111.122C134.25 111.122 134.535 109.926 134.535 107.533C134.535 106.052 134.25 105.312 133.681 105.312ZM155.043 92.8704V88.0852C155.043 85.9889 153.539 84.6217 150.531 83.9836C150.941 82.0012 151.99 79.4377 153.676 76.2932C155.385 73.1487 156.786 71.5764 157.88 71.5764C158.746 71.5764 159.896 71.998 161.332 72.8411L163.383 74.1399C164.021 74.5045 164.761 74.6868 165.604 74.6868C166.037 74.6868 166.505 74.6412 167.006 74.55C166.801 75.9172 166.322 77.3756 165.57 78.925C164.818 80.4745 163.952 81.3176 162.973 81.4543H162.631C161.651 81.4543 160.398 81.0442 158.871 80.2239C158.051 79.8137 157.379 79.6086 156.854 79.6086C156.171 79.6086 155.681 79.9277 155.385 80.5657L154.633 82.3088C160.603 83.4482 163.588 84.804 163.588 86.3762V111.635C163.588 114.552 162.619 116.01 160.683 116.01H156.41C153.22 116.01 151.625 113.538 151.625 108.593C151.625 104.583 152.764 102.201 155.043 101.449V96.2883H141.371V111.635C141.371 114.552 140.403 116.01 138.466 116.01H134.193C131.003 116.01 129.408 113.538 129.408 108.593C129.408 104.583 130.548 102.201 132.826 101.449V88.0852C132.826 85.9889 131.322 84.6217 128.314 83.9836C128.725 82.0012 129.773 79.4377 131.459 76.2932C133.168 73.1487 134.569 71.5764 135.663 71.5764C136.529 71.5764 137.68 71.998 139.115 72.8411L141.166 74.1399C141.804 74.5045 142.545 74.6868 143.388 74.6868C143.821 74.6868 144.288 74.6412 144.789 74.55C144.584 75.9172 144.105 77.3756 143.354 78.925C142.602 80.4745 141.736 81.3176 140.756 81.4543H140.414C139.434 81.4543 138.181 81.0442 136.654 80.2239C135.834 79.8137 135.162 79.6086 134.638 79.6086C133.954 79.6086 133.464 79.9277 133.168 80.5657L132.416 82.3088C138.386 83.4482 141.371 84.804 141.371 86.3762V92.8704H155.043ZM199.477 88.0852C199.477 85.9889 197.973 84.6217 194.965 83.9836C195.375 82.0012 196.423 79.4377 198.109 76.2932C199.818 73.1487 201.22 71.5764 202.313 71.5764C203.179 71.5764 204.33 71.998 205.766 72.8411L207.816 74.1399C208.454 74.5045 209.195 74.6868 210.038 74.6868C210.471 74.6868 210.938 74.6412 211.439 74.55C211.234 75.9172 210.756 77.3756 210.004 78.925C209.252 80.4745 208.386 81.3176 207.406 81.4543H207.064C206.085 81.4543 204.831 81.0442 203.305 80.2239C202.484 79.8137 201.812 79.6086 201.288 79.6086C200.604 79.6086 200.115 79.9277 199.818 80.5657L199.066 82.3088C205.036 83.4482 208.021 84.804 208.021 86.3762V105.654C208.021 112.558 203.464 116.01 194.35 116.01H190.932C181.817 116.01 177.26 112.558 177.26 105.654V88.0852C177.26 85.9889 175.756 84.6217 172.748 83.9836C173.158 82.0012 174.206 79.4377 175.893 76.2932C177.602 73.1487 179.003 71.5764 180.097 71.5764C180.963 71.5764 182.113 71.998 183.549 72.8411L185.6 74.1399C186.238 74.5045 186.978 74.6868 187.821 74.6868C188.254 74.6868 188.721 74.6412 189.223 74.55C189.018 75.9172 188.539 77.3756 187.787 78.925C187.035 80.4745 186.169 81.3176 185.189 81.4543H184.848C183.868 81.4543 182.615 81.0442 181.088 80.2239C180.268 79.8137 179.595 79.6086 179.071 79.6086C178.388 79.6086 177.898 79.9277 177.602 80.5657L176.85 82.3088C182.82 83.4482 185.805 84.804 185.805 86.3762V105.654C185.805 110.279 187.514 112.592 190.932 112.592H194.35C197.768 112.592 199.477 110.279 199.477 105.654V88.0852ZM244.765 105.312C244.195 105.312 243.91 106.406 243.91 108.593C243.91 110.279 244.195 111.122 244.765 111.122C245.334 111.122 245.619 109.926 245.619 107.533C245.619 106.052 245.334 105.312 244.765 105.312ZM222.548 105.312C221.978 105.312 221.693 106.406 221.693 108.593C221.693 110.279 221.978 111.122 222.548 111.122C223.118 111.122 223.402 109.926 223.402 107.533C223.402 106.052 223.118 105.312 222.548 105.312ZM243.91 92.8704V88.0852C243.91 85.9889 242.406 84.6217 239.398 83.9836C239.809 82.0012 240.857 79.4377 242.543 76.2932C244.252 73.1487 245.653 71.5764 246.747 71.5764C247.613 71.5764 248.764 71.998 250.199 72.8411L252.25 74.1399C252.888 74.5045 253.629 74.6868 254.472 74.6868C254.905 74.6868 255.372 74.6412 255.873 74.55C255.668 75.9172 255.189 77.3756 254.438 78.925C253.686 80.4745 252.82 81.3176 251.84 81.4543H251.498C250.518 81.4543 249.265 81.0442 247.738 80.2239C246.918 79.8137 246.246 79.6086 245.722 79.6086C245.038 79.6086 244.548 79.9277 244.252 80.5657L243.5 82.3088C249.47 83.4482 252.455 84.804 252.455 86.3762V111.635C252.455 114.552 251.487 116.01 249.55 116.01H245.277C242.087 116.01 240.492 113.538 240.492 108.593C240.492 104.583 241.632 102.201 243.91 101.449V96.2883H230.238V111.635C230.238 114.552 229.27 116.01 227.333 116.01H223.061C219.87 116.01 218.275 113.538 218.275 108.593C218.275 104.583 219.415 102.201 221.693 101.449V88.0852C221.693 85.9889 220.189 84.6217 217.182 83.9836C217.592 82.0012 218.64 79.4377 220.326 76.2932C222.035 73.1487 223.437 71.5764 224.53 71.5764C225.396 71.5764 226.547 71.998 227.982 72.8411L230.033 74.1399C230.671 74.5045 231.412 74.6868 232.255 74.6868C232.688 74.6868 233.155 74.6412 233.656 74.55C233.451 75.9172 232.973 77.3756 232.221 78.925C231.469 80.4745 230.603 81.3176 229.623 81.4543H229.281C228.301 81.4543 227.048 81.0442 225.521 80.2239C224.701 79.8137 224.029 79.6086 223.505 79.6086C222.821 79.6086 222.331 79.9277 222.035 80.5657L221.283 82.3088C227.253 83.4482 230.238 84.804 230.238 86.3762V92.8704H243.91ZM266.981 105.312C266.412 105.312 266.127 106.406 266.127 108.593C266.127 110.279 266.412 111.122 266.981 111.122C267.551 111.122 267.836 109.926 267.836 107.533C267.836 106.052 267.551 105.312 266.981 105.312ZM266.127 88.0852C266.127 85.9889 264.623 84.6217 261.615 83.9836C262.025 82.0012 263.074 79.4377 264.76 76.2932C266.469 73.1487 267.87 71.5764 268.964 71.5764C269.83 71.5764 270.98 71.998 272.416 72.8411L274.467 74.1399C275.105 74.5045 275.845 74.6868 276.688 74.6868C277.121 74.6868 277.589 74.6412 278.09 74.55C277.885 75.9172 277.406 77.3756 276.654 78.925C275.902 80.4745 275.036 81.3176 274.057 81.4543H273.715C272.735 81.4543 271.482 81.0442 269.955 80.2239C269.135 79.8137 268.463 79.6086 267.938 79.6086C267.255 79.6086 266.765 79.9277 266.469 80.5657L265.717 82.3088C271.687 83.4482 274.672 84.804 274.672 86.3762V111.635C274.672 114.552 273.703 116.01 271.767 116.01H267.494C264.304 116.01 262.709 113.538 262.709 108.593C262.709 104.583 263.848 102.201 266.127 101.449V88.0852Z" fill="#1A1A1A"/>
</svg>
