<svg width="357" height="357" viewBox="0 0 357 357" fill="none" xmlns="http://www.w3.org/2000/svg">
<path d="M69.7161 78.7886C69.7161 76.9652 70.0753 75.1597 70.7731 73.4752C71.4708 71.7906 72.4936 70.26 73.783 68.9707C75.0723 67.6814 76.603 66.6587 78.2876 65.9609C79.9723 65.2632 81.7778 64.904 83.6013 64.904H273.323C277.022 64.904 280.57 66.3735 283.186 68.9892C285.802 71.6049 287.271 75.1525 287.271 78.8517C287.271 82.5508 285.802 86.0985 283.186 88.7142C280.57 91.3299 277.022 92.7994 273.323 92.7994H83.6644C81.825 92.8078 80.0022 92.4507 78.302 91.7488C76.6018 91.0469 75.058 90.0142 73.7603 88.7106C72.4625 87.4071 71.4368 85.8587 70.7425 84.1554C70.0483 82.4521 69.6994 80.6278 69.7161 78.7886V78.7886ZM287.259 134.567C287.259 130.884 285.796 127.353 283.192 124.749C280.588 122.145 277.056 120.682 273.373 120.682H83.6644C79.9651 120.682 76.4173 122.152 73.8015 124.767C71.1857 127.383 69.7161 130.931 69.7161 134.63C69.7161 138.329 71.1857 141.877 73.8015 144.492C76.4173 147.108 79.9651 148.577 83.6644 148.577H273.323C275.161 148.584 276.983 148.226 278.681 147.523C280.38 146.821 281.923 145.788 283.219 144.484C284.515 143.181 285.54 141.633 286.233 139.931C286.927 138.228 287.275 136.405 287.259 134.567V134.567ZM83.6644 176.41C79.9651 176.41 76.4173 177.879 73.8015 180.495C71.1857 183.111 69.7161 186.658 69.7161 190.357C69.7161 194.057 71.1857 197.604 73.8015 200.22C76.4173 202.836 79.9651 204.305 83.6644 204.305H147.814C151.513 204.305 155.061 202.836 157.677 200.22C160.293 197.604 161.762 194.057 161.762 190.357C161.762 186.658 160.293 183.111 157.677 180.495C155.061 177.879 151.513 176.41 147.814 176.41H83.6644ZM344.743 285.593C352.587 293.44 356.992 304.081 356.99 315.176C356.988 326.271 352.578 336.91 344.731 344.754C336.883 352.597 326.242 357.002 315.146 357C304.051 356.998 293.411 352.588 285.567 344.741L209.312 268.351C207.61 266.65 206.379 264.536 205.74 262.216L190.151 205.933C189.463 203.524 189.439 200.974 190.083 198.553C190.726 196.132 192.013 193.93 193.806 192.181C195.6 190.431 197.833 189.2 200.27 188.617C202.706 188.033 205.255 188.12 207.646 188.868L262.556 205.529C264.755 206.195 266.754 207.397 268.375 209.026L344.743 285.593ZM231.642 251.184L282.904 302.532L302.633 282.803L251.094 231.14L223.803 222.91L231.642 251.184ZM325.052 305.246L322.363 302.557L302.646 322.273L305.347 324.975C306.643 326.269 308.18 327.296 309.873 327.996C311.565 328.696 313.379 329.057 315.21 329.056C317.042 329.055 318.855 328.694 320.547 327.993C322.239 327.291 323.776 326.264 325.07 324.968C326.365 323.673 327.392 322.135 328.092 320.443C328.793 318.751 329.153 316.937 329.152 315.106C329.152 313.274 328.79 311.461 328.089 309.769C327.387 308.077 326.36 306.54 325.064 305.246H325.052ZM301.207 0H55.7678C40.9791 0.0200502 26.8021 5.90522 16.3472 16.3644C5.89237 26.8236 0.0133578 41.0026 0 55.7907L0 301.207C0.0167048 315.995 5.89892 330.172 16.3562 340.629C26.8134 351.086 40.9917 356.968 55.7805 356.985H226.606C230.305 356.985 233.853 355.515 236.469 352.9C239.084 350.284 240.554 346.736 240.554 343.037C240.554 339.338 239.084 335.79 236.469 333.175C233.853 330.559 230.305 329.089 226.606 329.089H55.7678C48.3713 329.083 41.2796 326.142 36.0494 320.912C30.8192 315.682 27.878 308.59 27.8713 301.194V55.7907C27.878 48.3944 30.8192 41.303 36.0494 36.0731C41.2796 30.8431 48.3713 27.902 55.7678 27.8953H301.207C308.603 27.902 315.695 30.8431 320.925 36.0731C326.156 41.303 329.097 48.3944 329.103 55.7907V227.303C329.103 231.002 330.573 234.55 333.189 237.165C335.805 239.781 339.352 241.251 343.052 241.251C346.751 241.251 350.299 239.781 352.915 237.165C355.53 234.55 357 231.002 357 227.303V55.7907C356.987 40.9982 351.104 26.8154 340.644 16.3555C330.183 5.89559 316 0.0133687 301.207 0V0Z" fill="url(#paint0_linear)"/>
<defs>
<linearGradient id="paint0_linear" x1="178.5" y1="0" x2="178.5" y2="357" gradientUnits="userSpaceOnUse">
<stop stop-color="#FFBF3F"/>
<stop offset="1" stop-color="#FF6A8F"/>
</linearGradient>
</defs>
</svg>
