<svg width="512" height="512" viewBox="0 0 512 512" fill="none" xmlns="http://www.w3.org/2000/svg">
<path d="M406 392C372.91 392 346 365.09 346 332C346 298.91 372.91 271 406 271C439.09 271 466 298.91 466 332C466 365.09 439.09 392 406 392Z" fill="#F6A96C"/>
<path d="M406 392C383.164 392 362.188 399.48 344.957 411.859L322.93 461.617L361 512H512V497C512 439.012 463.988 392 406 392Z" fill="#32DDF9"/>
<path d="M76 126.715L29.5352 151L38.3555 97.7305L0 61.3008L53.1797 53.8008L76 0L99.3789 53.8008L151 61.3008L113.645 97.7305L122.465 151L76 126.715Z" fill="#FFBD86"/>
<path d="M293.5 97.5977L302.5 151L256 126.699L209.5 151L218.5 97.5977L181 61.3008L233.199 53.8008L256 0L279.402 53.8008L331 61.3008L293.5 97.5977Z" fill="#F6A96C"/>
<path d="M436 126.715L389.535 151L398.355 97.7305L361 61.3008L413.18 53.8008L436 0L459.379 53.8008L512 61.3008L473.645 97.7305L482.465 151L436 126.715Z" fill="#1C868E"/>
<path d="M106 392C72.9102 392 46 365.09 46 332C46 298.91 72.9102 271 106 271C139.09 271 166 298.91 166 332C166 365.09 139.09 392 106 392Z" fill="#FFBD86"/>
<path d="M106 392C48.0117 392 0 439.012 0 497V512H151L188.211 467L167.043 411.863C149.812 399.48 128.836 392 106 392Z" fill="#84ECF7"/>
<path d="M302.5 151L256 126.699V0L279.402 53.8008L331 61.3008L293.5 97.5977L302.5 151Z" fill="#1C868E"/>
<path d="M256 241C223 241 196 268 196 301C196 334 223 362 256 362C289 362 316 334 316 301C316 268 289 241 256 241Z" fill="#FED2A4"/>
<path d="M361 467V512H151V467C151 446.602 157 428 166.902 411.801C185.5 382.098 218.5 362 256 362C293.5 362 326.5 382.098 345.098 411.801C355 428 361 446.602 361 467Z" fill="#FF637B"/>
<path d="M256 362V241C289 241 316 268 316 301C316 334 289 362 256 362Z" fill="#F6A96C"/>
<path d="M361 467V512H256V362C293.5 362 326.5 382.098 345.098 411.801C355 428 361 446.602 361 467Z" fill="#E63950"/>
</svg>
