<svg width="136" height="130" viewBox="0 0 136 130" fill="none" xmlns="http://www.w3.org/2000/svg">
<path d="M28.99 52.16C28.99 52.16 62.07 59.8 74.79 95.42L1 128.5L28.99 52.16Z" stroke="black" stroke-miterlimit="10"/>
<path d="M73.016 30.5301L73.0202 30.5671C73.0134 31.7575 72.5605 33.7457 71.8491 36.1176C71.1384 38.4873 70.189 41.1793 69.237 43.7195C68.2855 46.2586 67.3337 48.64 66.6196 50.3871C66.2626 51.2605 65.9652 51.975 65.757 52.4709C65.653 52.7189 65.5713 52.9122 65.5156 53.0434L65.5026 53.0742C64.3261 53.6525 63.3806 54.0093 62.6275 54.1976C61.8354 54.3956 61.2891 54.3989 60.9215 54.307C60.5731 54.2199 60.3697 54.0448 60.2402 53.8182C60.1006 53.574 60.0277 53.2334 60.0277 52.8038C60.0277 51.9398 60.3204 50.8939 60.6339 50.032C60.7881 49.6078 60.9426 49.241 61.0583 48.9806C61.0885 48.9125 61.1161 48.8519 61.1402 48.7995C61.5519 48.6758 61.8873 48.3421 62.1483 47.9937C62.4977 47.5274 62.8244 46.8868 63.1287 46.1563C63.7396 44.6896 64.3036 42.7518 64.7828 40.8363C65.2632 38.9161 65.6632 36.998 65.9429 35.5615C66.0828 34.8429 66.1928 34.2438 66.2679 33.8242C66.3054 33.6143 66.3343 33.4493 66.3537 33.3365L66.3758 33.2075L66.3815 33.1741L66.3829 33.1655L66.3833 33.1632L66.3834 33.1626C66.3834 33.1625 66.3834 33.1624 65.8902 33.08L66.3834 33.1624L66.3902 33.1215V33.08C66.3902 27.9478 65.7474 24.0895 65.1003 21.506C64.7767 20.2144 64.4523 19.2419 64.2067 18.5885C64.084 18.2618 63.981 18.0149 63.9078 17.8479C63.881 17.7868 63.8582 17.7364 63.8399 17.6967C63.8149 13.8225 62.5111 11.2038 61.1857 9.54648C60.5192 8.71293 59.851 8.12717 59.3458 7.74782C59.093 7.55805 58.8806 7.41958 58.7287 7.32726C58.6928 7.30544 58.6603 7.28619 58.6315 7.26944C58.123 6.17499 58.1476 5.25072 58.4421 4.46621C58.7566 3.62859 59.3978 2.90219 60.155 2.29678C60.9088 1.69411 61.7455 1.23685 62.4005 0.92889C62.7265 0.775599 63.0041 0.660902 63.199 0.584939C63.2036 0.583131 63.2082 0.581346 63.2127 0.579582L68.0767 5.44355L68.0774 5.44424C68.309 5.67496 68.5972 6.21291 68.9107 7.08239C69.2152 7.92693 69.5186 9.00996 69.8149 10.254C70.4072 12.7404 70.9614 15.8275 71.4376 18.8454C71.9134 21.8613 72.3099 24.7992 72.5875 26.9836C72.7263 28.0757 72.8353 28.979 72.9096 29.6092C72.9467 29.9242 72.9752 30.1709 72.9943 30.3388L73.016 30.5301Z" stroke="black"/>
<path d="M110.54 53.5539L110.576 53.5476C111.767 53.4841 113.78 53.8197 116.19 54.3912C118.598 54.9622 121.341 55.7529 123.932 56.5551C126.522 57.357 128.955 58.1685 130.74 58.7796C131.633 59.0851 132.363 59.3405 132.87 59.5194C133.124 59.6088 133.322 59.6791 133.456 59.7271L133.487 59.7383C134.134 60.8796 134.546 61.8032 134.778 62.5445C135.023 63.324 135.058 63.8695 134.988 64.2421C134.921 64.5952 134.759 64.8084 134.54 64.9509C134.305 65.1044 133.969 65.1971 133.541 65.2221C132.679 65.2724 131.617 65.0411 130.739 64.7783C130.306 64.649 129.931 64.5161 129.664 64.4157C129.595 64.3895 129.533 64.3655 129.479 64.3444C129.331 63.9403 128.979 63.6245 128.615 63.3838C128.129 63.062 127.471 62.773 126.723 62.5118C125.224 61.9873 123.256 61.5375 121.316 61.1712C119.372 60.804 117.434 60.517 115.984 60.322C115.258 60.2244 114.654 60.1497 114.231 60.0994C114.019 60.0742 113.852 60.0551 113.739 60.0423L113.609 60.0278L113.575 60.0241L113.566 60.0232L113.564 60.0229L113.563 60.0229C113.563 60.0229 113.563 60.0228 113.51 60.52L113.563 60.0228L113.522 60.0184L113.48 60.0209C108.358 60.3233 104.546 61.1911 102.005 61.9879C100.735 62.3863 99.7837 62.7668 99.1461 63.0499C98.8273 63.1914 98.5869 63.3085 98.4245 63.3913C98.3652 63.4215 98.3164 63.4471 98.2778 63.4677C94.4054 63.7161 91.866 65.169 90.2891 66.5884C89.496 67.3022 88.9509 68.0033 88.6022 68.5299C88.4278 68.7933 88.3022 69.0135 88.2191 69.1705C88.1994 69.2077 88.1821 69.2413 88.1671 69.2712C87.1074 69.844 86.1846 69.8745 85.3845 69.627C84.53 69.3627 83.7663 68.7655 83.1161 68.045C82.4689 67.3279 81.9616 66.5192 81.6144 65.8832C81.4415 65.5666 81.3101 65.2962 81.2224 65.106C81.2204 65.1017 81.2184 65.0973 81.2165 65.0931L85.7933 59.9525L85.7936 59.9521C86.0109 59.7075 86.5316 59.3886 87.3812 59.0251C88.2066 58.6719 89.2699 58.3059 90.4941 57.9374C92.941 57.2008 95.9893 56.4668 98.9729 55.8147C101.955 55.163 104.863 54.5949 107.026 54.1897C108.108 53.9872 109.003 53.8254 109.627 53.7142C109.939 53.6587 110.184 53.6158 110.35 53.5868L110.54 53.5539Z" stroke="black"/>
<path d="M85.7396 48.35C85.7396 50.885 83.6846 52.94 81.1496 52.94C78.6146 52.94 76.5596 50.885 76.5596 48.35C76.5596 45.815 78.6146 43.76 81.1496 43.76C83.6846 43.76 85.7396 45.815 85.7396 48.35Z" stroke="black"/>
<path d="M98.47 33.08C98.47 35.615 96.415 37.67 93.88 37.67C91.345 37.67 89.29 35.615 89.29 33.08C89.29 30.545 91.345 28.49 93.88 28.49C96.415 28.49 98.47 30.545 98.47 33.08Z" stroke="black"/>
<path d="M85.7503 12.72C85.7503 15.255 83.6953 17.31 81.1603 17.31C78.6253 17.31 76.5703 15.255 76.5703 12.72C76.5703 10.185 78.6253 8.13 81.1603 8.13C83.6953 8.13 85.7503 10.185 85.7503 12.72Z" stroke="black"/>
<path d="M52.7572 39.5787L52.7762 39.6378C52.8454 39.9807 52.8374 40.6191 52.7621 41.4497C52.6872 42.2753 52.5527 43.227 52.4054 44.1336C52.2584 45.0388 52.0997 45.8926 51.9777 46.5204C51.9167 46.8341 51.8649 47.0911 51.8285 47.2694C51.8211 47.3053 51.8144 47.338 51.8084 47.3673C51.5172 47.5873 51.2825 47.7319 51.0964 47.8213C50.8769 47.9268 50.7562 47.9404 50.7071 47.938C50.6981 47.9375 50.6922 47.9366 50.6887 47.9358C50.6775 47.9223 50.6479 47.8745 50.6258 47.7624C50.5805 47.5314 50.6004 47.2092 50.6453 46.9099C50.6622 46.7971 50.6814 46.6953 50.6984 46.6137C50.8404 46.4933 50.93 46.3374 50.9844 46.2239C51.0875 46.0087 51.1604 45.7423 51.2153 45.4681C51.3264 44.9136 51.3862 44.2102 51.4184 43.5351C51.4508 42.855 51.4562 42.1827 51.4535 41.6819C51.4521 41.431 51.4488 41.2223 51.4457 41.076C51.4442 41.0028 51.4428 40.9452 51.4417 40.9057L51.4404 40.8603L51.4401 40.8483L51.44 40.8451L51.44 40.8442L51.4399 40.844C51.4399 40.8439 51.4399 40.8438 50.9402 40.86L51.4346 40.7856C51.166 38.9995 50.5278 37.2894 49.5614 35.7644C49.4562 35.0407 49.1651 34.356 48.7156 33.7775C48.2737 33.2088 47.6944 32.7631 47.0334 32.4814C46.8844 32.2482 46.8631 32.0482 46.8917 31.874C46.928 31.6532 47.0545 31.4209 47.246 31.1923C47.4347 30.967 47.6611 30.7755 47.8466 30.6377C47.863 30.6255 47.879 30.6138 47.8945 30.6026L49.5971 31.7721L49.5971 31.7722L49.6007 31.7746C49.6007 31.7746 49.609 31.7806 49.6254 31.7969C49.6428 31.8143 49.6652 31.8393 49.6925 31.8738C49.7476 31.9435 49.8126 32.0391 49.8866 32.1625C50.0345 32.4093 50.2012 32.7382 50.3798 33.1284C50.7361 33.9071 51.1219 34.8908 51.4797 35.8627C51.8368 36.8328 52.163 37.7828 52.4 38.4909C52.5184 38.8448 52.6145 39.1378 52.6809 39.3422C52.714 39.4443 52.7398 39.5243 52.7572 39.5787ZM48.1498 30.4332L48.1498 30.4333L48.1498 30.4332Z" fill="white" stroke="black"/>
<path d="M115.74 93.24C115.74 95.775 113.685 97.83 111.15 97.83C108.615 97.83 106.56 95.775 106.56 93.24C106.56 90.705 108.615 88.65 111.15 88.65C113.685 88.65 115.74 90.705 115.74 93.24Z" stroke="black"/>
<path d="M99.5801 79.1067L99.6365 79.0933C99.979 79.057 100.609 79.1182 101.424 79.2588C102.237 79.399 103.172 79.6065 104.062 79.8221C104.951 80.0375 105.789 80.2596 106.404 80.428C106.712 80.5122 106.964 80.5828 107.139 80.6323C107.173 80.642 107.204 80.6509 107.232 80.6589C107.43 80.9719 107.557 81.2223 107.633 81.4194C107.722 81.6516 107.727 81.7785 107.721 81.8326C107.719 81.8468 107.716 81.8547 107.715 81.8581C107.715 81.8584 107.714 81.8588 107.714 81.8592C107.7 81.8694 107.651 81.896 107.537 81.9099C107.304 81.9383 106.985 81.8938 106.689 81.8255C106.578 81.7997 106.478 81.7724 106.398 81.7489C106.289 81.5976 106.14 81.4961 106.031 81.4332C105.824 81.314 105.564 81.221 105.295 81.1455C104.751 80.9926 104.055 80.8796 103.384 80.7963C102.708 80.7123 102.038 80.6559 101.539 80.6206C101.406 80.6112 101.286 80.6033 101.18 80.5967V80.5283L100.64 80.5715C98.8565 80.7143 97.1214 81.22 95.541 82.0572C94.81 82.1094 94.104 82.3495 93.4919 82.755C92.8902 83.1537 92.4004 83.6982 92.0674 84.3367C91.8248 84.4673 91.6254 84.4729 91.4555 84.4312C91.2398 84.3783 91.0191 84.2345 90.8066 84.0257C90.5972 83.8201 90.4242 83.5794 90.3015 83.3837C90.2896 83.3648 90.2784 83.3465 90.2676 83.3288L91.5729 81.669L91.573 81.669L91.5753 81.666C91.5753 81.666 91.5818 81.6582 91.599 81.6431C91.6174 81.627 91.6438 81.6065 91.6799 81.5817C91.7529 81.5317 91.8526 81.4738 91.9807 81.409C92.2369 81.2793 92.5764 81.1373 92.9781 80.9882C93.7798 80.6907 94.7881 80.3802 95.783 80.0971C96.7759 79.8146 97.7466 79.5619 98.4698 79.3796C98.8311 79.2886 99.1302 79.2152 99.3388 79.1647C99.4431 79.1394 99.5247 79.1199 99.5801 79.1067Z" fill="white" stroke="black"/>
<path d="M42.4896 27.99C42.4896 30.525 40.4346 32.58 37.8996 32.58C35.3646 32.58 33.3096 30.525 33.3096 27.99C33.3096 25.455 35.3646 23.4 37.8996 23.4C40.4346 23.4 42.4896 25.455 42.4896 27.99Z" stroke="black"/>
</svg>
