<svg width="496" height="496" viewBox="0 0 496 496" fill="none" xmlns="http://www.w3.org/2000/svg">
<g clip-path="url(#clip0)">
<path d="M440 47.6001H360V199.6H440V47.6001Z" fill="#680B09"/>
<path d="M448 31.6001H352V47.6001H448V31.6001Z" fill="#C43D27"/>
<path d="M488 431.6H0V463.6H488V431.6Z" fill="#207700"/>
<path d="M56 362L72 354L88 362V448.4L72 456.4L56 448.4V362Z" fill="#207700"/>
<path d="M0 362L16 354L32 362V448.4L16 456.4L0 448.4V362Z" fill="#207700"/>
<path d="M72 391.6H16V407.6H72V391.6Z" fill="#239B02"/>
<path d="M440 223.6H112V447.6H440V223.6Z" fill="white"/>
<path d="M112 223.6H440V447.6" fill="#E8F9FC"/>
<path d="M256 431.6V282C256 274.8 253.6 271.6 246.4 271.6H172C164.8 271.6 160 275.6 160 282V431.6H256Z" fill="#FCA12A"/>
<path d="M256 359.6V282C256 274.8 253.6 271.6 246.4 271.6H172C164.8 271.6 160 275.6 160 282" fill="#E58613"/>
<path d="M246.4 352.4C246.4 359.6 240.8 366 232.8 366C225.6 366 219.2 360.4 219.2 352.4C219.2 345.2 224.8 338.8 232.8 338.8C240 338.8 246.4 344.4 246.4 352.4Z" fill="#DB5435"/>
<path d="M242.4 342.8C248 347.6 247.2 356.4 242.4 362C237.6 367.6 228.8 366.8 223.2 362" fill="#C43D27"/>
<path d="M344 311.6H392V282C392 274.8 384 271.6 376.8 271.6H344V311.6Z" fill="#0E75AF"/>
<path d="M336 311.6V271.6H300C292.8 271.6 288 275.6 288 282V311.6H336Z" fill="#1EA4C4"/>
<path d="M336 319.6H288V350.8C288 358 292.8 359.6 300 359.6H336V319.6Z" fill="#0E75AF"/>
<path d="M344 319.6V359.6H376.8C384 359.6 392 358 392 350.8V319.6H344Z" fill="#1EA4C4"/>
<path d="M495.2 223.6L276 52.3999L57.6001 223.6H495.2Z" fill="#C43D27"/>
<path d="M495.2 223.6L276 52.3999L164.8 223.6H495.2Z" fill="#AA1E0F"/>
<path d="M119.2 175.6H433.6L413.6 159.6H139.2L119.2 175.6Z" fill="#C43D27"/>
<path d="M190.4 119.6H362.4L352 111.6H200.8L190.4 119.6Z" fill="#C43D27"/>
</g>
<defs>
<clipPath id="clip0">
<rect width="495.2" height="495.2" fill="white"/>
</clipPath>
</defs>
</svg>
