<svg width="512" height="492" viewBox="0 0 512 492" fill="none" xmlns="http://www.w3.org/2000/svg">
<path d="M506.096 254.697C502.195 258.572 497.097 260.509 492 260.509C486.859 260.509 481.721 258.54 477.812 254.605L462 238.688V311.508C462 322.554 453.046 331.508 442 331.508C430.954 331.508 422 322.554 422 311.508V198.425L269.893 45.3151C262.429 38.9211 251.439 38.8971 243.946 45.2601L89.9909 198.911C89.9969 199.109 89.9999 199.308 89.9999 199.508V411.508C89.9999 433.564 107.944 451.508 130 451.508H182V288.508C182 277.462 190.954 268.508 202 268.508H312C323.046 268.508 332 277.462 332 288.508V451.508H382C404.056 451.508 422 433.564 422 411.508C422 400.462 430.954 391.508 442 391.508C453.046 391.508 462 400.462 462 411.508C462 455.62 426.112 491.508 382 491.508H312C300.954 491.508 292 482.554 292 471.508V308.508H222V471.508C222 482.554 213.046 491.508 202 491.508H130C85.8879 491.508 49.9999 455.62 49.9999 411.508V238.824L34.1279 254.665C26.3109 262.467 13.6479 262.455 5.84388 254.637C-1.95912 246.819 -1.94611 234.156 5.87189 226.352L216.161 16.4771C216.43 16.2091 216.706 15.9481 216.99 15.6951C239.832 -4.63993 274.217 -4.56693 296.972 15.8641C297.254 16.1181 297.531 16.3801 297.798 16.6501L506.188 226.413C513.974 234.249 513.932 246.912 506.096 254.697Z" fill="url(#paint0_linear)"/>
<defs>
<linearGradient id="paint0_linear" x1="264" y1="-9.5" x2="292.5" y2="529" gradientUnits="userSpaceOnUse">
<stop stop-color="#FFBF3F" stop-opacity="0.82"/>
<stop offset="1" stop-color="#FF6A8F"/>
</linearGradient>
</defs>
</svg>
