<svg width="496" height="462" viewBox="0 0 496 462" fill="none" xmlns="http://www.w3.org/2000/svg">
<path d="M487.083 208.467L412.003 133.387V46.6574C412.003 30.9754 399.295 18.2664 383.59 18.2664C367.921 18.2664 355.213 30.9754 355.213 46.6574V76.5984L299.31 20.6934C271.671 -6.93061 223.615 -6.88161 196.039 20.7434L8.3115 208.467C-2.7705 219.571 -2.7705 237.538 8.3115 248.625C19.3985 259.726 37.4005 259.726 48.4835 248.625L236.193 60.8964C242.308 54.8134 253.087 54.8134 259.17 60.8784L446.911 248.625C452.478 254.176 459.737 256.937 466.993 256.937C474.264 256.937 481.534 254.173 487.084 248.625C498.17 237.539 498.17 219.572 487.083 208.467Z" fill="#1C868E"/>
<path d="M257.56 114.789C252.106 109.338 243.275 109.338 237.837 114.789L72.7115 279.866C70.1045 282.472 68.6265 286.03 68.6265 289.743V410.144C68.6265 438.397 91.5345 461.304 119.786 461.304H201.54V334.694H293.839V461.304H375.594C403.845 461.304 426.753 438.397 426.753 410.145V289.743C426.753 286.03 425.288 282.472 422.668 279.866L257.56 114.789Z" fill="#1C868E"/>
</svg>
