<svg width="513" height="510" viewBox="0 0 513 510" fill="none" xmlns="http://www.w3.org/2000/svg">
<path d="M508.487 169.37L471.887 144.578C471.895 144.37 471.999 144.202 471.999 143.994V47.9944C471.999 43.5704 468.423 39.9944 463.999 39.9944H399.999C395.575 39.9944 391.999 43.5704 391.999 47.9944V90.4584L260.487 1.3704C257.727 -0.485595 254.095 -0.461595 251.367 1.47441L3.36684 177.474C-0.0411596 179.898 -1.00916 184.53 1.14284 188.114L25.1428 228.114C26.2948 230.026 28.1908 231.37 30.3668 231.834C30.9108 231.938 31.4548 231.994 31.9988 231.994C33.6548 231.994 35.2788 231.482 36.6468 230.498L47.9988 222.394V223.994C47.9988 228.418 51.5748 231.994 55.9988 231.994C60.4228 231.994 63.9988 228.418 63.9988 223.994V210.962L256.119 73.7464L440.319 198.73C439.455 206.666 438.887 245.45 439.967 471.994H423.999V255.994C423.999 251.57 420.423 247.994 415.999 247.994H319.999C315.575 247.994 311.999 251.57 311.999 255.994V471.994H223.999C219.575 471.994 215.999 475.57 215.999 479.994C215.999 484.418 219.575 487.994 223.999 487.994H447.999C450.127 487.994 452.167 487.146 453.671 485.634C455.175 484.122 456.007 482.082 455.999 479.954C455.535 384.17 455.119 244.274 455.655 209.138L475.511 222.61C477.335 223.842 479.591 224.282 481.727 223.802C483.863 223.322 485.727 221.986 486.863 220.106L510.863 180.106C513.047 176.474 511.999 171.754 508.487 169.37ZM327.999 471.994V263.994H407.999V471.994H327.999ZM407.999 55.9944H455.999V79.9944H439.999C435.575 79.9944 431.999 83.5704 431.999 87.9944C431.999 92.4184 435.575 95.9944 439.999 95.9944H455.999V133.818L407.999 101.298V55.9944ZM477.495 204.626L260.495 57.3784C257.719 55.4984 254.079 55.5464 251.351 57.4904L34.3988 212.45L18.6708 186.234L256.111 17.7384L493.247 178.378L477.495 204.626Z" fill="url(#paint0_linear)"/>
<path d="M383.999 279.994H359.999C351.175 279.994 343.999 287.17 343.999 295.994V351.994C343.999 356.418 347.575 359.994 351.999 359.994H375.999C384.823 359.994 391.999 352.818 391.999 343.994V287.994C391.999 283.57 388.423 279.994 383.999 279.994ZM359.999 343.994V295.994H375.999L376.015 343.994H359.999Z" fill="url(#paint1_linear)"/>
<path d="M383.999 375.994H359.999C351.175 375.994 343.999 383.17 343.999 391.994V447.994C343.999 452.418 347.575 455.994 351.999 455.994H375.999C384.823 455.994 391.999 448.818 391.999 439.994V383.994C391.999 379.57 388.423 375.994 383.999 375.994ZM359.999 439.994V391.994H375.999L376.015 439.994H359.999Z" fill="url(#paint2_linear)"/>
<path d="M383.999 231.994C388.423 231.994 391.999 228.418 391.999 223.994C391.999 219.57 388.423 215.994 383.999 215.994H351.999C347.575 215.994 343.999 219.57 343.999 223.994C343.999 228.418 347.575 231.994 351.999 231.994H383.999Z" fill="url(#paint3_linear)"/>
<path d="M319.999 191.994C324.423 191.994 327.999 188.418 327.999 183.994C327.999 166.61 321.655 149.786 310.143 136.634V136.626C296.439 120.97 276.703 111.994 255.999 111.994C235.295 111.994 215.559 120.97 201.855 136.626V136.634C190.343 149.786 183.999 166.61 183.999 183.994C183.999 188.418 187.575 191.994 191.999 191.994H319.999ZM209.063 153.554L215.575 159.25L234.703 175.994H200.575C201.743 168.002 204.631 160.346 209.063 153.554ZM263.999 128.57C274.479 130.09 284.335 134.586 292.399 141.514L278.655 153.538L263.999 166.362V128.57ZM277.295 175.994L296.431 159.25L302.943 153.554C307.375 160.346 310.263 168.002 311.431 175.994H277.295ZM247.999 166.362L233.343 153.538L219.599 141.514C227.663 134.586 237.519 130.09 247.999 128.57V166.362Z" fill="url(#paint4_linear)"/>
<path d="M270.879 414.17L256.503 284.122C255.967 279.218 253.951 274.65 250.671 270.922L223.655 240.154C219.111 234.97 212.535 231.994 205.631 231.994H82.367C75.463 231.994 68.887 234.97 64.335 240.162L37.311 270.938C34.047 274.666 32.031 279.226 31.487 284.122L17.119 413.642C16.135 422.578 20.167 431.242 27.639 436.234L130.695 505.098C134.743 507.81 139.383 509.162 144.023 509.162C148.647 509.162 153.263 507.818 157.295 505.138L260.303 436.802C267.815 431.818 271.863 423.146 270.879 414.17ZM251.455 423.482L148.447 491.818C145.751 493.61 142.271 493.602 139.591 491.81L36.527 422.938C34.031 421.266 32.695 418.378 33.023 415.402L47.399 285.882C47.575 284.25 48.247 282.73 49.335 281.49L76.351 250.722C77.871 248.986 80.0709 247.994 82.367 247.994H205.631C207.927 247.994 210.127 248.986 211.647 250.722L238.655 281.482C239.751 282.73 240.423 284.25 240.599 285.882L254.975 415.938C255.303 418.922 253.951 421.818 251.455 423.482Z" fill="url(#paint5_linear)"/>
<path d="M151.167 301.97C148.479 296.498 139.511 296.498 136.823 301.97L122.919 330.138L91.8308 334.65C88.8148 335.09 86.3188 337.194 85.3668 340.09C84.4308 342.986 85.2068 346.17 87.3908 348.29L109.887 370.226L104.583 401.178C104.071 404.178 105.303 407.21 107.759 409.002C110.239 410.802 113.511 411.034 116.183 409.61L143.999 395.01L171.807 409.618C172.975 410.234 174.255 410.538 175.527 410.538C177.183 410.538 178.831 410.026 180.231 409.01C182.695 407.218 183.927 404.186 183.407 401.186L178.103 370.234L200.599 348.298C202.775 346.17 203.559 342.994 202.623 340.098C201.679 337.21 199.175 335.098 196.159 334.658L165.071 330.146L151.167 301.97ZM163.919 361.714C162.039 363.546 161.175 366.202 161.623 368.794L164.895 387.922L147.719 378.898C146.551 378.282 145.279 377.978 143.999 377.978C142.719 377.978 141.447 378.282 140.279 378.898L123.103 387.922L126.375 368.794C126.823 366.202 125.959 363.554 124.079 361.714L110.183 348.162L129.383 345.37C131.991 344.994 134.239 343.354 135.407 340.994L143.999 323.586L152.591 340.994C153.759 343.354 156.007 344.994 158.615 345.37L177.815 348.162L163.919 361.714Z" fill="url(#paint6_linear)"/>
<path d="M143.999 271.994C95.4788 271.994 55.9988 311.474 55.9988 359.994C55.9988 408.514 95.4788 447.994 143.999 447.994C192.519 447.994 231.999 408.514 231.999 359.994C231.999 311.474 192.519 271.994 143.999 271.994ZM143.999 431.994C104.295 431.994 71.9988 399.698 71.9988 359.994C71.9988 320.29 104.295 287.994 143.999 287.994C183.703 287.994 215.999 320.29 215.999 359.994C215.999 399.698 183.703 431.994 143.999 431.994Z" fill="url(#paint7_linear)"/>
<defs>
<linearGradient id="paint0_linear" x1="256.001" y1="7.9946" x2="256.001" y2="503.859" gradientUnits="userSpaceOnUse">
<stop stop-color="#FFBF3F"/>
<stop offset="1" stop-color="#FF6A8F"/>
</linearGradient>
<linearGradient id="paint1_linear" x1="367.998" y1="7.9946" x2="367.998" y2="503.859" gradientUnits="userSpaceOnUse">
<stop stop-color="#FFBF3F"/>
<stop offset="1" stop-color="#FF6A8F"/>
</linearGradient>
<linearGradient id="paint2_linear" x1="367.998" y1="7.99459" x2="367.998" y2="503.859" gradientUnits="userSpaceOnUse">
<stop stop-color="#FFBF3F"/>
<stop offset="1" stop-color="#FF6A8F"/>
</linearGradient>
<linearGradient id="paint3_linear" x1="367.998" y1="7.99458" x2="367.998" y2="503.859" gradientUnits="userSpaceOnUse">
<stop stop-color="#FFBF3F"/>
<stop offset="1" stop-color="#FF6A8F"/>
</linearGradient>
<linearGradient id="paint4_linear" x1="255.998" y1="7.99458" x2="255.998" y2="503.859" gradientUnits="userSpaceOnUse">
<stop stop-color="#FFBF3F"/>
<stop offset="1" stop-color="#FF6A8F"/>
</linearGradient>
<linearGradient id="paint5_linear" x1="143.999" y1="7.99459" x2="143.999" y2="503.859" gradientUnits="userSpaceOnUse">
<stop stop-color="#FFBF3F"/>
<stop offset="1" stop-color="#FF6A8F"/>
</linearGradient>
<linearGradient id="paint6_linear" x1="143.994" y1="7.99466" x2="143.994" y2="503.859" gradientUnits="userSpaceOnUse">
<stop stop-color="#FFBF3F"/>
<stop offset="1" stop-color="#FF6A8F"/>
</linearGradient>
<linearGradient id="paint7_linear" x1="143.998" y1="7.99458" x2="143.998" y2="503.859" gradientUnits="userSpaceOnUse">
<stop stop-color="#FFBF3F"/>
<stop offset="1" stop-color="#FF6A8F"/>
</linearGradient>
</defs>
</svg>
