<svg width="458" height="512" viewBox="0 0 458 512" fill="none" xmlns="http://www.w3.org/2000/svg">
<path d="M320.867 -5.71795e-05C295.763 0.0138855 271.157 7.00072 249.793 20.1813C237.038 7.2112 219.591 -0.0650057 201.4 -5.71795e-05C163.715 0.0422671 133.176 30.5815 133.133 68.2666C133.134 70.7642 133.274 73.2598 133.551 75.7418C81.1195 101.557 47.8803 154.891 47.8 213.333V307.2C45.3251 342.099 30.9233 375.084 7.01064 400.623C-0.00584311 408.188 -1.82014 419.215 2.40264 428.629C6.43149 437.884 15.6052 443.832 25.6986 443.733H125.103C129.564 482.496 162.381 511.754 201.4 511.754C240.419 511.754 273.236 482.496 277.697 443.733H377.101C387.195 443.832 396.368 437.884 400.397 428.629C404.62 419.204 402.799 408.167 395.772 400.597C371.949 375.012 357.566 342.065 355 307.2V268.57C421.575 251.429 464.998 187.434 456.331 119.237C447.664 51.04 389.612 -0.0572864 320.867 -5.71795e-05V-5.71795e-05ZM150.2 68.2666C150.228 40.0013 173.135 17.0948 201.4 17.0666C213.989 17.0453 226.134 21.7222 235.457 30.1823C224.841 38.695 215.549 48.7374 207.885 59.9807C205.718 59.8869 203.576 59.7333 201.4 59.7333C183.947 59.7666 166.629 62.7944 150.2 68.6847C150.2 68.5482 150.2 68.4117 150.2 68.2666V68.2666ZM201.4 494.933C171.719 494.896 146.553 473.104 142.273 443.733H260.527C256.247 473.104 231.081 494.896 201.4 494.933ZM383.16 412.092C385.598 414.68 386.241 418.48 384.79 421.726C383.489 424.795 380.442 426.755 377.11 426.667H25.6986C22.3663 426.755 19.3193 424.795 18.0186 421.726C16.5885 418.501 17.227 414.733 19.64 412.16C46.5275 383.54 62.531 346.399 64.8666 307.2V213.333C64.9795 139.238 124.135 78.7392 198.209 76.9621C175.951 121.958 180.318 175.56 209.565 216.361C238.812 257.161 288.173 278.51 337.933 271.88V307.2C340.28 346.377 356.283 383.492 383.16 412.092V412.092ZM320.867 256C254.887 256 201.4 202.513 201.4 136.533C201.4 70.5537 254.887 17.0666 320.867 17.0666C386.846 17.0666 440.333 70.5537 440.333 136.533C440.263 202.484 386.817 255.929 320.867 256Z" fill="url(#paint0_linear)"/>
<defs>
<linearGradient id="paint0_linear" x1="228.79" y1="-0.000488281" x2="228.79" y2="511.754" gradientUnits="userSpaceOnUse">
<stop stop-color="#FFBF3F"/>
<stop offset="1" stop-color="#FF6A8F"/>
</linearGradient>
</defs>
</svg>
