<svg width="512" height="512" viewBox="0 0 512 512" fill="none" xmlns="http://www.w3.org/2000/svg">
<g clip-path="url(#clip0)">
<path d="M119.467 392.533H85.3333C80.6204 392.533 76.7999 396.354 76.7999 401.067C76.7999 405.779 80.6204 409.6 85.3333 409.6H119.467C124.179 409.6 128 405.779 128 401.067C128 396.354 124.179 392.533 119.467 392.533Z" fill="url(#paint0_linear)"/>
<path d="M145.067 401.067C145.067 405.779 148.887 409.6 153.6 409.6H375.467C380.179 409.6 384 405.779 384 401.067C384 396.354 380.179 392.533 375.467 392.533H153.6C148.887 392.533 145.067 396.354 145.067 401.067Z" fill="url(#paint1_linear)"/>
<path d="M166.468 133.402C168.912 131.516 170.147 128.457 169.698 125.404C169.248 122.35 167.185 119.777 164.301 118.675C161.418 117.573 158.165 118.114 155.793 120.09C127.397 142.699 110.877 177.036 110.933 213.333C110.933 218.046 114.754 221.867 119.467 221.867C124.179 221.867 128 218.046 128 213.333C127.96 182.217 142.125 152.784 166.468 133.402Z" fill="url(#paint2_linear)"/>
<path d="M349.867 -5.71795e-05C324.763 0.0138855 300.157 7.00072 278.793 20.1813C266.038 7.2112 248.591 -0.0650057 230.4 -5.71795e-05C192.715 0.0422671 162.176 30.5815 162.133 68.2666C162.134 70.7642 162.274 73.2598 162.551 75.7418C110.119 101.557 76.8803 154.891 76.8 213.333V307.2C74.3251 342.099 59.9233 375.084 36.0106 400.623C28.9942 408.188 27.1799 419.215 31.4026 428.629C35.4315 437.884 44.6052 443.832 54.6986 443.733H154.103C158.564 482.496 191.381 511.754 230.4 511.754C269.419 511.754 302.236 482.496 306.697 443.733H406.101C416.195 443.832 425.368 437.884 429.397 428.629C433.62 419.204 431.799 408.167 424.772 400.597C400.949 375.012 386.566 342.065 384 307.2V268.57C450.575 251.429 493.998 187.434 485.331 119.237C476.664 51.04 418.612 -0.0572864 349.867 -5.71795e-05V-5.71795e-05ZM179.2 68.2666C179.228 40.0013 202.135 17.0948 230.4 17.0666C242.989 17.0453 255.134 21.7222 264.457 30.1823C253.841 38.695 244.549 48.7374 236.885 59.9807C234.718 59.8869 232.576 59.7333 230.4 59.7333C212.947 59.7666 195.629 62.7944 179.2 68.6847C179.2 68.5482 179.2 68.4117 179.2 68.2666V68.2666ZM230.4 494.933C200.719 494.896 175.553 473.104 171.273 443.733H289.527C285.247 473.104 260.081 494.896 230.4 494.933ZM412.16 412.092C414.598 414.68 415.241 418.48 413.79 421.726C412.489 424.795 409.442 426.755 406.11 426.667H54.6986C51.3663 426.755 48.3193 424.795 47.0186 421.726C45.5885 418.501 46.227 414.733 48.64 412.16C75.5275 383.54 91.531 346.399 93.8666 307.2V213.333C93.9795 139.238 153.135 78.7392 227.209 76.9621C204.951 121.958 209.318 175.56 238.565 216.361C267.812 257.161 317.173 278.51 366.933 271.88V307.2C369.28 346.377 385.283 383.492 412.16 412.092V412.092ZM349.867 256C283.887 256 230.4 202.513 230.4 136.533C230.4 70.5537 283.887 17.0666 349.867 17.0666C415.846 17.0666 469.333 70.5537 469.333 136.533C469.263 202.484 415.817 255.929 349.867 256Z" fill="url(#paint3_linear)"/>
<path d="M349.867 34.1333C338.813 34.1339 328.304 38.9302 321.061 47.2798C313.818 55.6294 310.555 66.7108 312.115 77.6533L321.946 146.423C323.925 160.323 335.827 170.651 349.867 170.651C363.907 170.651 375.809 160.323 377.788 146.423L387.618 77.6533C389.179 66.7108 385.915 55.6294 378.672 47.2798C371.429 38.9302 360.92 34.1339 349.867 34.1333ZM370.722 75.2469L360.9 144.034C360.119 149.528 355.416 153.61 349.867 153.61C344.318 153.61 339.614 149.528 338.833 144.034L329.011 75.2554C327.841 67.0924 331.54 58.9968 338.478 54.5392C345.416 50.0816 354.317 50.0816 361.255 54.5392C368.193 58.9968 371.893 67.0924 370.722 75.2554V75.2469Z" fill="url(#paint4_linear)"/>
<path d="M349.867 187.733C335.728 187.733 324.267 199.195 324.267 213.333C324.267 227.472 335.728 238.933 349.867 238.933C364.005 238.933 375.467 227.472 375.467 213.333C375.467 199.195 364.005 187.733 349.867 187.733ZM349.867 221.867C345.154 221.867 341.333 218.046 341.333 213.333C341.333 208.621 345.154 204.8 349.867 204.8C354.579 204.8 358.4 208.621 358.4 213.333C358.4 218.046 354.579 221.867 349.867 221.867Z" fill="url(#paint5_linear)"/>
</g>
<defs>
<linearGradient id="paint0_linear" x1="102.4" y1="392.533" x2="102.4" y2="409.6" gradientUnits="userSpaceOnUse">
<stop stop-color="#FFBF3F"/>
<stop offset="1" stop-color="#FF6A8F"/>
</linearGradient>
<linearGradient id="paint1_linear" x1="264.533" y1="392.533" x2="264.533" y2="409.6" gradientUnits="userSpaceOnUse">
<stop stop-color="#FFBF3F"/>
<stop offset="1" stop-color="#FF6A8F"/>
</linearGradient>
<linearGradient id="paint2_linear" x1="140.361" y1="118.112" x2="140.361" y2="221.867" gradientUnits="userSpaceOnUse">
<stop stop-color="#FFBF3F"/>
<stop offset="1" stop-color="#FF6A8F"/>
</linearGradient>
<linearGradient id="paint3_linear" x1="257.79" y1="-0.000488281" x2="257.79" y2="511.754" gradientUnits="userSpaceOnUse">
<stop stop-color="#FFBF3F"/>
<stop offset="1" stop-color="#FF6A8F"/>
</linearGradient>
<linearGradient id="paint4_linear" x1="349.867" y1="34.1333" x2="349.867" y2="170.651" gradientUnits="userSpaceOnUse">
<stop stop-color="#FFBF3F"/>
<stop offset="1" stop-color="#FF6A8F"/>
</linearGradient>
<linearGradient id="paint5_linear" x1="349.867" y1="187.733" x2="349.867" y2="238.933" gradientUnits="userSpaceOnUse">
<stop stop-color="#FFBF3F"/>
<stop offset="1" stop-color="#FF6A8F"/>
</linearGradient>
<clipPath id="clip0">
<rect width="512" height="512" fill="white"/>
</clipPath>
</defs>
</svg>
