<svg width="303" height="303" viewBox="0 0 303 303" fill="none" xmlns="http://www.w3.org/2000/svg">
<path d="M151.5 0C67.7702 0 0 67.759 0 151.5C0 235.23 67.759 303 151.5 303C235.23 303 303 235.241 303 151.5C303 67.7702 235.241 0 151.5 0ZM151.5 279.328C80.8531 279.328 23.6719 222.156 23.6719 151.5C23.6719 80.8531 80.8436 23.6719 151.5 23.6719C222.147 23.6719 279.328 80.8436 279.328 151.5C279.328 222.147 222.156 279.328 151.5 279.328ZM198.844 123.39C198.844 145.41 183.733 163.967 163.336 169.236V188.487C163.336 195.024 158.037 200.323 151.5 200.323C144.963 200.323 139.664 195.024 139.664 188.487V158.897C139.664 152.36 144.963 147.062 151.5 147.062C164.553 147.062 175.172 136.442 175.172 123.39C175.172 110.337 164.553 99.7178 151.5 99.7178C138.447 99.7178 127.828 110.337 127.828 123.39C127.828 129.927 122.529 135.226 115.992 135.226C109.455 135.226 104.156 129.927 104.156 123.39C104.156 97.2843 125.395 76.0459 151.5 76.0459C177.605 76.0459 198.844 97.2843 198.844 123.39ZM166.295 223.995C166.295 232.166 159.671 238.79 151.5 238.79C143.329 238.79 136.705 232.166 136.705 223.995C136.705 215.824 143.329 209.2 151.5 209.2C159.671 209.2 166.295 215.824 166.295 223.995Z" fill="url(#paint0_linear)"/>
<defs>
<linearGradient id="paint0_linear" x1="151.5" y1="0" x2="151.5" y2="303" gradientUnits="userSpaceOnUse">
<stop stop-color="#FFBF3F" stop-opacity="0.93"/>
<stop offset="1" stop-color="#FF6A8F"/>
</linearGradient>
</defs>
</svg>
