<svg width="512" height="512" viewBox="0 0 512 512" fill="none" xmlns="http://www.w3.org/2000/svg">
<path d="M450.671 156.853H9.013C4.035 156.853 0 152.817 0 147.84V39.678C0 34.7 4.036 30.665 9.013 30.665H450.671C455.649 30.665 459.684 34.701 459.684 39.678V147.839C459.685 152.817 455.649 156.853 450.671 156.853Z" fill="#E4EAF8"/>
<path d="M108.161 156.853H9.013C4.035 156.853 0 152.817 0 147.84V39.678C0 34.7 4.036 30.665 9.013 30.665H108.161C113.139 30.665 117.174 34.701 117.174 39.678V147.839C117.175 152.817 113.139 156.853 108.161 156.853Z" fill="#FF5050"/>
<path d="M306.457 84.7452H153.228C148.246 84.7452 144.215 80.7142 144.215 75.7322C144.215 70.7502 148.246 66.7192 153.228 66.7192H306.456C311.438 66.7192 315.469 70.7502 315.469 75.7322C315.469 80.7142 311.439 84.7452 306.457 84.7452Z" fill="#707487"/>
<path d="M414.618 120.799H243.363C238.381 120.799 234.35 116.768 234.35 111.786C234.35 106.804 238.381 102.773 243.363 102.773H414.618C419.6 102.773 423.631 106.804 423.631 111.786C423.631 116.768 419.6 120.799 414.618 120.799Z" fill="#7F8499"/>
<path d="M207.309 120.799H153.228C148.246 120.799 144.215 116.768 144.215 111.786C144.215 106.804 148.246 102.773 153.228 102.773H207.309C212.291 102.773 216.322 106.804 216.322 111.786C216.322 116.768 212.291 120.799 207.309 120.799Z" fill="#7F8499"/>
<path d="M58.587 111.786C53.605 111.786 49.574 107.755 49.574 102.773C49.574 97.7909 53.605 93.7599 58.587 93.7599C66.042 93.7599 72.107 87.6949 72.107 80.2399C72.107 72.7849 66.042 66.7199 58.587 66.7199C51.132 66.7199 45.067 72.7849 45.067 80.2399C45.067 85.2219 41.036 89.2529 36.054 89.2529C31.072 89.2529 27.041 85.2219 27.041 80.2399C27.041 62.8459 41.195 48.6929 58.588 48.6929C75.981 48.6929 90.135 62.8469 90.135 80.2399C90.135 97.6329 75.981 111.786 58.587 111.786Z" fill="white"/>
<path d="M58.6752 138.826C53.6932 138.826 49.6182 134.795 49.6182 129.813C49.6182 124.831 53.6052 120.8 58.5872 120.8H58.6752C63.6572 120.8 67.6882 124.831 67.6882 129.813C67.6892 134.795 63.6572 138.826 58.6752 138.826Z" fill="white"/>
<path d="M450.671 319.094H9.013C4.035 319.094 0 315.058 0 310.081V201.92C0 196.942 4.036 192.907 9.013 192.907H450.671C455.649 192.907 459.684 196.943 459.684 201.92V310.081C459.685 315.059 455.649 319.094 450.671 319.094Z" fill="#E4EAF8"/>
<path d="M108.161 319.094H9.013C4.035 319.094 0 315.058 0 310.081V201.92C0 196.942 4.036 192.907 9.013 192.907H108.161C113.139 192.907 117.174 196.943 117.174 201.92V310.081C117.175 315.059 113.139 319.094 108.161 319.094Z" fill="#FFDC64"/>
<path d="M306.457 246.987H153.228C148.246 246.987 144.215 242.956 144.215 237.974C144.215 232.992 148.246 228.961 153.228 228.961H306.456C311.438 228.961 315.469 232.992 315.469 237.974C315.47 242.956 311.439 246.987 306.457 246.987Z" fill="#707487"/>
<path d="M207.309 283.041H153.228C148.246 283.041 144.215 279.01 144.215 274.028C144.215 269.046 148.246 265.015 153.228 265.015H207.309C212.291 265.015 216.322 269.046 216.322 274.028C216.322 279.009 212.291 283.041 207.309 283.041Z" fill="#7F8499"/>
<path d="M58.587 274.027C53.605 274.027 49.574 269.996 49.574 265.014C49.574 260.032 53.605 256.001 58.587 256.001C66.042 256.001 72.107 249.936 72.107 242.481C72.107 235.026 66.042 228.961 58.587 228.961C51.132 228.961 45.067 235.026 45.067 242.481C45.067 247.463 41.036 251.494 36.054 251.494C31.072 251.494 27.041 247.463 27.041 242.481C27.041 225.088 41.195 210.934 58.588 210.934C75.981 210.934 90.135 225.088 90.135 242.481C90.135 259.874 75.981 274.027 58.587 274.027Z" fill="white"/>
<path d="M58.6752 301.068C53.6932 301.068 49.6182 297.037 49.6182 292.055C49.6182 287.073 53.6052 283.042 58.5872 283.042H58.6752C63.6572 283.042 67.6882 287.073 67.6882 292.055C67.6882 297.037 63.6572 301.068 58.6752 301.068Z" fill="white"/>
<path d="M450.671 481.336H9.013C4.036 481.336 0 477.3 0 472.323V364.162C0 359.184 4.036 355.149 9.013 355.149H450.671C455.649 355.149 459.684 359.185 459.684 364.162V472.323C459.685 477.3 455.649 481.336 450.671 481.336Z" fill="#E4EAF8"/>
<path d="M108.161 481.336H9.013C4.036 481.336 0 477.3 0 472.323V364.162C0 359.184 4.036 355.149 9.013 355.149H108.161C113.139 355.149 117.174 359.185 117.174 364.162V472.323C117.175 477.3 113.139 481.336 108.161 481.336Z" fill="#7DF5A5"/>
<path d="M306.457 409.229H153.228C148.246 409.229 144.215 405.198 144.215 400.216C144.215 395.234 148.246 391.203 153.228 391.203H306.456C311.438 391.203 315.469 395.234 315.469 400.216C315.469 405.198 311.439 409.229 306.457 409.229Z" fill="#707487"/>
<path d="M207.309 445.282H153.228C148.246 445.282 144.215 441.251 144.215 436.269C144.215 431.287 148.246 427.256 153.228 427.256H207.309C212.291 427.256 216.322 431.287 216.322 436.269C216.322 441.251 212.291 445.282 207.309 445.282Z" fill="#7F8499"/>
<path d="M58.587 436.269C53.605 436.269 49.574 432.238 49.574 427.256C49.574 422.274 53.605 418.243 58.587 418.243C66.042 418.243 72.107 412.178 72.107 404.723C72.107 397.268 66.042 391.203 58.587 391.203C51.132 391.203 45.067 397.268 45.067 404.723C45.067 409.705 41.036 413.736 36.054 413.736C31.072 413.736 27.041 409.705 27.041 404.723C27.041 387.329 41.195 373.176 58.588 373.176C75.981 373.176 90.135 387.33 90.135 404.723C90.135 422.116 75.981 436.269 58.587 436.269Z" fill="white"/>
<path d="M58.6752 463.309C53.6932 463.309 49.6182 459.278 49.6182 454.296C49.6182 449.314 53.6052 445.283 58.5872 445.283H58.6752C63.6572 445.283 67.6882 449.314 67.6882 454.296C67.6892 459.278 63.6572 463.309 58.6752 463.309Z" fill="white"/>
<path d="M450.671 355.148H405.604V408.618C405.604 421.048 415.718 431.159 428.15 431.159C432.534 431.159 436.8 429.882 440.487 427.467L444.103 425.096L459.685 462.714V364.161C459.685 359.183 455.649 355.148 450.671 355.148Z" fill="#D5DCED"/>
<path d="M444.073 280.636C439.811 276.374 434.164 274.027 428.171 274.027C415.728 274.027 405.605 284.14 405.605 296.57V319.095H450.672C455.65 319.095 459.685 315.059 459.685 310.082V296.25L444.073 280.636Z" fill="#D5DCED"/>
<path d="M396.591 283.041H243.363C238.385 283.041 234.35 279.005 234.35 274.028C234.35 269.05 238.386 265.015 243.363 265.015H396.591C401.569 265.015 405.604 269.051 405.604 274.028C405.604 279.005 401.569 283.041 396.591 283.041Z" fill="#7F8499"/>
<path d="M396.591 445.282H243.363C238.385 445.282 234.35 441.246 234.35 436.269C234.35 431.291 238.386 427.256 243.363 427.256H396.591C401.569 427.256 405.604 431.292 405.604 436.269C405.604 441.247 401.569 445.282 396.591 445.282Z" fill="#7F8499"/>
</svg>
