<svg width="512" height="512" viewBox="0 0 512 512" fill="none" xmlns="http://www.w3.org/2000/svg">
<path d="M360 16.0049C276.187 16.0049 208 84.1919 208 168.005C208 251.818 276.187 320.005 360 320.005C443.813 320.005 512 251.818 512 168.005C512 84.1919 443.813 16.0049 360 16.0049Z" fill="#AE85CC"/>
<path d="M450.4 192.804L436.731 182.552C441.342 173.597 444 163.154 444 152.004C444 118.92 420.673 92.0039 392 92.0039C363.327 92.0039 340 118.92 340 152.004C340 185.088 363.327 212.004 392 212.004C403.018 212.004 413.239 208.018 421.657 201.247L436 212.005C439.535 214.656 444.549 213.94 447.2 210.405L452 204.005C454.651 200.47 453.934 195.455 450.4 192.804ZM392 188.005C376.561 188.005 364 171.856 364 152.005C364 132.154 376.561 116.005 392 116.005C407.439 116.005 420 132.154 420 152.005C420 157.69 418.966 163.069 417.133 167.855L412 164.005C408.465 161.354 403.451 162.07 400.8 165.605L396 172.005C393.349 175.54 394.066 180.554 397.6 183.205L401.279 185.964C398.373 187.281 395.252 188.005 392 188.005Z" fill="#F3F1F1"/>
<path d="M152 16.0049C68.187 16.0049 0 84.1919 0 168.005C0 251.818 68.187 320.005 152 320.005C235.813 320.005 304 251.818 304 168.005C304 84.1919 235.813 16.0049 152 16.0049Z" fill="#FF6C6C"/>
<path d="M176 312.005C92.187 312.005 24 243.818 24 160.005C24 97.4178 62.026 43.5518 116.185 20.2778C49.599 36.4228 0 96.5248 0 168.005C0 251.818 68.187 320.005 152 320.005C173.226 320.005 193.447 315.625 211.815 307.732C200.325 310.517 188.334 312.005 176 312.005Z" fill="#FF6C6C"/>
<path d="M180 116.005V108.005C180 103.587 176.418 100.005 172 100.005H104C97.373 100.005 92 105.378 92 112.005V208.005C92 212.423 95.582 216.005 100 216.005H108C112.418 216.005 116 212.423 116 208.005V172.005H156C160.418 172.005 164 168.423 164 164.005V156.005C164 151.587 160.418 148.005 156 148.005H116V124.005H172C176.418 124.005 180 120.423 180 116.005Z" fill="#F3F1F1"/>
<path d="M256 176.005C172.187 176.005 104 244.192 104 328.005C104 370.034 121.417 410.117 151.964 438.814L136.41 485.475C134.249 491.956 141.069 498.122 147.31 495.288L202.369 470.261C219.502 476.729 237.526 480.005 256 480.005C339.813 480.005 408 411.818 408 328.005C408 244.192 339.813 176.005 256 176.005Z" fill="#FFC44F"/>
<path d="M160.411 485.474L175.965 438.813C145.417 410.117 128 370.034 128 328.005C128 248.23 189.775 182.616 268 176.478C264.04 176.167 260.039 176.005 256 176.005C172.187 176.005 104 244.192 104 328.005C104 370.034 121.417 410.117 151.964 438.814L136.41 485.475C134.249 491.956 141.069 498.121 147.31 495.288L160.17 489.442C159.918 488.186 159.955 486.84 160.411 485.474Z" fill="#FFB357"/>
<path d="M305.789 380.526L312.944 376.948C316.896 374.972 318.497 370.167 316.522 366.215L300 332.005H299.417L266.734 266.639C264.39 261.952 259.225 259.255 253.895 260.189C250.065 260.86 246.852 263.471 245.113 266.948L212 332.005V333.172L195.478 366.215C193.502 370.167 195.104 374.972 199.056 376.948L206.212 380.526C210.164 382.502 214.969 380.9 216.945 376.948L227.417 356.004H284.584L295.056 376.948C297.032 380.901 301.837 382.502 305.789 380.526ZM239.417 332.005L256 298.838L272.584 332.005H239.417Z" fill="#F3F1F1"/>
</svg>
