<svg width="512" height="512" viewBox="0 0 512 512" fill="none" xmlns="http://www.w3.org/2000/svg">
<path d="M256 163.652L235.984 256L256 348.348C306.922 348.348 348.348 306.922 348.348 256C348.348 205.078 306.922 163.652 256 163.652Z" fill="#87A0AF"/>
<path d="M163.652 256C163.652 306.922 205.078 348.348 256 348.348V163.652C205.078 163.652 163.652 205.078 163.652 256Z" fill="#B4D2D7"/>
<path d="M512 299.059V212.941L465.562 199.441C460.633 181.191 453.387 163.883 444.145 147.863L467.465 105.43L406.57 44.5352L364.137 67.8555C348.117 58.6133 330.805 51.3672 312.559 46.4375L299.059 0H256L235.984 78L256 133.652C323.465 133.652 378.348 188.535 378.348 256C378.348 323.465 323.465 378.348 256 378.348L235.984 431.004L256 512H299.059L312.559 465.562C330.809 460.633 348.117 453.387 364.137 444.145L406.57 467.465L467.465 406.57L444.145 364.137C453.387 348.117 460.629 330.805 465.562 312.559L512 299.059Z" fill="#B4D2D7"/>
<path d="M133.652 256C133.652 188.535 188.535 133.652 256 133.652V0H212.941L199.441 46.4375C181.191 51.3672 163.883 58.6133 147.863 67.8555L105.43 44.5352L44.5352 105.426L67.8555 147.863C58.6133 163.883 51.3711 181.191 46.4375 199.441L0 212.941V299.059L46.4375 312.559C51.3672 330.809 58.6133 348.117 67.8555 364.137L44.5352 406.57L105.43 467.465L147.863 444.145C163.883 453.387 181.195 460.629 199.441 465.562L212.941 512H256V378.348C188.535 378.348 133.652 323.465 133.652 256Z" fill="#25B7D3"/>
</svg>
