<svg width="512" height="512" viewBox="0 0 512 512" fill="none" xmlns="http://www.w3.org/2000/svg">
<g clip-path="url(#clip0)">
<path d="M428.41 171.888C420.054 163.532 410.384 156.965 399.693 152.123C371.672 139.433 349.642 116.716 337.259 88.558C314.342 36.445 262.284 0.0460427 201.713 4.26705e-05C122.402 -0.0599573 56.5508 63.163 53.5658 142.418C52.2888 176.34 62.4228 207.839 80.4358 233.387C103.313 265.835 109.257 307.169 97.4568 345.077C80.6928 398.934 86.5378 449.975 118.43 481.868C174.318 537.756 289.016 513.672 374.615 428.073C460.213 342.474 484.298 227.777 428.41 171.888V171.888Z" fill="url(#paint0_linear)"/>
<path opacity="0.1" d="M474.827 325.363V296.593C474.827 293.832 472.588 291.593 469.827 291.593H449.871C448.249 285.664 445.899 280.04 442.922 274.815L457.031 260.701C458.983 258.748 458.983 255.583 457.03 253.631L436.687 233.288C434.735 231.336 431.569 231.335 429.617 233.287L415.503 247.396C410.278 244.42 404.654 242.07 398.725 240.447V220.491C398.725 217.73 396.486 215.491 393.725 215.491H364.955C362.194 215.491 359.955 217.73 359.955 220.491V240.447C354.026 242.069 348.402 244.419 343.177 247.396L329.063 233.287C327.11 231.335 323.945 231.335 321.993 233.288L301.65 253.631C299.698 255.583 299.697 258.749 301.649 260.701L315.758 274.815C312.782 280.04 310.432 285.665 308.809 291.593H288.853C286.092 291.593 283.853 293.832 283.853 296.593V325.363C283.853 328.124 286.092 330.363 288.853 330.363H308.809C310.431 336.292 312.781 341.916 315.758 347.141L301.649 361.255C299.697 363.208 299.697 366.373 301.65 368.325L321.993 388.668C323.945 390.62 327.111 390.621 329.063 388.669L343.177 374.56C348.402 377.536 354.027 379.886 359.955 381.509V401.465C359.955 404.226 362.194 406.465 364.955 406.465H393.725C396.486 406.465 398.725 404.226 398.725 401.465V381.509C404.654 379.887 410.278 377.537 415.503 374.56L429.617 388.669C431.57 390.621 434.735 390.621 436.687 388.668L457.03 368.325C458.982 366.373 458.983 363.207 457.031 361.255L442.922 347.141C445.898 341.916 448.248 336.291 449.871 330.363H469.827C472.588 330.363 474.827 328.124 474.827 325.363ZM379.34 348.478C358.629 348.478 341.84 331.689 341.84 310.978C341.84 290.267 358.629 273.478 379.34 273.478C400.051 273.478 416.84 290.267 416.84 310.978C416.84 331.689 400.051 348.478 379.34 348.478Z" fill="#0000CC"/>
<path opacity="0.1" d="M292.818 431.041V411.04C292.818 408.279 290.579 406.04 287.818 406.04H273.506C272.251 401.452 270.432 397.1 268.129 393.056L278.248 382.934C280.2 380.981 280.2 377.816 278.247 375.864L264.104 361.721C262.152 359.769 258.986 359.768 257.034 361.72L246.912 371.839C242.869 369.536 238.516 367.717 233.928 366.462V352.15C233.928 349.389 231.689 347.15 228.928 347.15H208.926C206.165 347.15 203.926 349.389 203.926 352.15V366.462C199.338 367.717 194.986 369.536 190.942 371.839L180.82 361.72C178.867 359.768 175.702 359.768 173.75 361.721L159.606 375.864C157.654 377.816 157.653 380.982 159.605 382.934L169.724 393.056C167.421 397.099 165.602 401.452 164.347 406.04H150.035C147.274 406.04 145.035 408.279 145.035 411.04V431.042C145.035 433.803 147.274 436.042 150.035 436.042H164.347C165.602 440.63 167.421 444.982 169.724 449.026L159.605 459.148C157.653 461.101 157.653 464.266 159.606 466.218L173.75 480.361C175.702 482.313 178.868 482.314 180.82 480.362L190.942 470.243C194.985 472.546 199.338 474.365 203.926 475.62V489.932C203.926 492.693 206.165 494.932 208.926 494.932H228.928C231.689 494.932 233.928 492.693 233.928 489.932V475.62C238.516 474.365 242.868 472.546 246.912 470.243L257.034 480.362C258.987 482.314 262.152 482.314 264.104 480.361L278.247 466.218C280.199 464.266 280.2 461.1 278.248 459.148L268.129 449.026C270.432 444.983 272.251 440.63 273.506 436.042H287.818C290.579 436.041 292.818 433.803 292.818 431.041V431.041ZM218.926 450.954C202.405 450.954 189.012 437.561 189.012 421.04C189.012 404.519 202.405 391.126 218.926 391.126C235.447 391.126 248.84 404.519 248.84 421.04C248.84 437.561 235.447 450.954 218.926 450.954Z" fill="#0000CC"/>
<path opacity="0.1" d="M292.507 219.653V177.818C292.507 175.057 290.268 172.818 287.507 172.818H259.141C256.972 164.891 253.83 157.371 249.85 150.385L269.905 130.323C271.857 128.37 271.857 125.205 269.904 123.253L240.322 93.6714C238.37 91.7194 235.204 91.7184 233.252 93.6704L213.19 113.725C206.204 109.746 198.684 106.604 190.757 104.434V76.0684C190.757 73.3074 188.518 71.0684 185.757 71.0684H143.922C141.161 71.0684 138.922 73.3074 138.922 76.0684V104.434C130.995 106.603 123.475 109.745 116.489 113.725L96.4279 93.6704C94.4749 91.7184 91.3099 91.7184 89.3579 93.6714L59.7759 123.253C57.8239 125.205 57.8229 128.371 59.7749 130.323L79.8299 150.385C75.8509 157.371 72.7089 164.891 70.5389 172.818H42.1729C39.4119 172.818 37.1729 175.057 37.1729 177.818V219.653C37.1729 222.414 39.4119 224.653 42.1729 224.653H70.5389C72.7079 232.58 75.8499 240.1 79.8299 247.086L59.7749 267.148C57.8229 269.101 57.8229 272.266 59.7759 274.218L89.3579 303.8C91.3099 305.752 94.4759 305.753 96.4279 303.801L116.49 283.746C123.476 287.725 130.996 290.867 138.923 293.037V321.403C138.923 324.164 141.162 326.403 143.923 326.403H185.758C188.519 326.403 190.758 324.164 190.758 321.403V293.037C198.685 290.868 206.205 287.726 213.191 283.746L233.253 303.801C235.206 305.753 238.371 305.753 240.323 303.8L269.905 274.218C271.857 272.266 271.858 269.1 269.906 267.148L249.851 247.086C253.83 240.1 256.972 232.58 259.142 224.653H287.508C290.268 224.653 292.507 222.414 292.507 219.653V219.653ZM164.84 255.303C133.598 255.303 108.272 229.977 108.272 198.735C108.272 167.493 133.598 142.167 164.84 142.167C196.082 142.167 221.408 167.493 221.408 198.735C221.408 229.977 196.082 255.303 164.84 255.303V255.303Z" fill="#0000CC"/>
<path d="M474.827 298.363V269.593C474.827 266.832 472.588 264.593 469.827 264.593H449.871C448.249 258.664 445.899 253.04 442.922 247.815L457.031 233.701C458.983 231.748 458.983 228.583 457.03 226.631L436.687 206.288C434.735 204.336 431.569 204.335 429.617 206.287L415.503 220.396C410.278 217.42 404.654 215.07 398.725 213.447V193.491C398.725 190.73 396.486 188.491 393.725 188.491H364.955C362.194 188.491 359.955 190.73 359.955 193.491V213.447C354.026 215.069 348.402 217.419 343.177 220.396L329.063 206.287C327.11 204.335 323.945 204.335 321.993 206.288L301.65 226.631C299.698 228.583 299.697 231.749 301.649 233.701L315.758 247.815C312.782 253.04 310.432 258.665 308.809 264.593H288.853C286.092 264.593 283.853 266.832 283.853 269.593V298.363C283.853 301.124 286.092 303.363 288.853 303.363H308.809C310.431 309.292 312.781 314.916 315.758 320.141L301.649 334.255C299.697 336.208 299.697 339.373 301.65 341.325L321.993 361.668C323.945 363.62 327.111 363.621 329.063 361.669L343.177 347.56C348.402 350.536 354.027 352.886 359.955 354.509V374.465C359.955 377.226 362.194 379.465 364.955 379.465H393.725C396.486 379.465 398.725 377.226 398.725 374.465V354.509C404.654 352.887 410.278 350.537 415.503 347.56L429.617 361.669C431.57 363.621 434.735 363.621 436.687 361.668L457.03 341.325C458.982 339.373 458.983 336.207 457.031 334.255L442.922 320.141C445.898 314.916 448.248 309.291 449.871 303.363H469.827C472.588 303.363 474.827 301.124 474.827 298.363ZM379.34 321.478C358.629 321.478 341.84 304.689 341.84 283.978C341.84 263.267 358.629 246.478 379.34 246.478C400.051 246.478 416.84 263.267 416.84 283.978C416.84 304.689 400.051 321.478 379.34 321.478Z" fill="#FF9D33"/>
<path d="M393.725 384.465H364.955C359.441 384.465 354.955 379.979 354.955 374.465V358.226C351.227 357.003 347.591 355.497 344.084 353.723L332.598 365.205C330.709 367.093 328.199 368.133 325.528 368.133H325.527C322.856 368.133 320.344 367.092 318.456 365.202L298.114 344.86C296.226 342.972 295.185 340.462 295.185 337.79C295.185 335.119 296.225 332.608 298.113 330.72L309.595 319.234C307.821 315.727 306.315 312.091 305.092 308.364H288.853C283.339 308.364 278.853 303.878 278.853 298.364V269.594C278.853 264.08 283.339 259.594 288.853 259.594H305.092C306.314 255.866 307.821 252.23 309.595 248.723L298.113 237.237C294.216 233.34 294.216 226.996 298.113 223.096L318.457 202.753C322.356 198.853 328.7 198.855 332.598 202.751L344.084 214.234C347.591 212.459 351.227 210.953 354.955 209.73V193.492C354.955 187.978 359.441 183.492 364.955 183.492H393.725C399.239 183.492 403.725 187.978 403.725 193.492V209.73C407.453 210.953 411.088 212.459 414.596 214.234L426.082 202.751C429.982 198.854 436.326 198.855 440.223 202.753L460.566 223.096C464.464 226.995 464.464 233.339 460.566 237.237L449.084 248.723C450.858 252.23 452.365 255.867 453.587 259.594H469.826C475.34 259.594 479.826 264.08 479.826 269.594V298.364C479.826 303.878 475.34 308.364 469.826 308.364H453.587C452.364 312.093 450.858 315.727 449.084 319.234L460.566 330.72C462.454 332.609 463.494 335.119 463.494 337.79C463.494 340.462 462.453 342.973 460.565 344.861L440.222 365.203C438.334 367.092 435.823 368.133 433.152 368.133C430.481 368.133 427.97 367.094 426.081 365.205L414.595 353.723C411.089 355.497 407.453 357.003 403.724 358.226V374.465C403.725 379.979 399.239 384.465 393.725 384.465V384.465ZM343.178 342.561C344.025 342.561 344.877 342.776 345.652 343.216C350.573 346.02 355.829 348.196 361.275 349.687C363.448 350.281 364.956 352.256 364.956 354.509V374.465H393.726V354.509C393.726 352.256 395.233 350.28 397.407 349.686C402.853 348.197 408.109 346.02 413.03 343.216C414.988 342.104 417.447 342.432 419.04 344.025L433.154 358.133L453.497 337.79L439.388 323.676C437.796 322.083 437.465 319.622 438.58 317.665C441.383 312.745 443.56 307.489 445.051 302.043C445.646 299.87 447.621 298.363 449.874 298.363H469.83V269.593H449.874C447.621 269.593 445.646 268.086 445.051 265.912C443.561 260.468 441.384 255.211 438.58 250.288C437.466 248.331 437.796 245.871 439.389 244.278L453.498 230.165L433.155 209.822L419.042 223.931C417.449 225.523 414.987 225.852 413.032 224.74C408.11 221.935 402.853 219.759 397.409 218.269C395.236 217.674 393.728 215.699 393.728 213.446V193.491H364.958V213.446C364.958 215.699 363.451 217.675 361.277 218.268C355.834 219.758 350.577 221.935 345.654 224.74C343.697 225.854 341.237 225.523 339.644 223.931L325.531 209.822L305.188 230.165L319.296 244.278C320.888 245.871 321.219 248.331 320.105 250.288C317.301 255.211 315.124 260.468 313.634 265.912C313.039 268.086 311.065 269.593 308.811 269.593H288.855V298.363H308.811C311.064 298.363 313.039 299.87 313.634 302.043C315.124 307.488 317.301 312.745 320.105 317.666C321.219 319.622 320.889 322.083 319.296 323.676L305.188 337.79L325.531 358.133L339.644 344.025C340.604 343.063 341.884 342.561 343.178 342.561V342.561ZM379.34 326.479C355.905 326.479 336.84 307.414 336.84 283.979C336.84 260.544 355.905 241.479 379.34 241.479C402.775 241.479 421.84 260.544 421.84 283.979C421.84 288.28 421.198 292.526 419.933 296.6C419.114 299.237 416.312 300.714 413.675 299.892C411.038 299.073 409.564 296.271 410.383 293.633C411.349 290.522 411.84 287.273 411.84 283.979C411.84 266.058 397.26 251.479 379.34 251.479C361.42 251.479 346.84 266.058 346.84 283.979C346.84 301.9 361.42 316.479 379.34 316.479C382.909 316.479 386.435 315.894 389.82 314.742C392.432 313.848 395.275 315.248 396.165 317.862C397.055 320.476 395.658 323.317 393.044 324.208C388.619 325.714 384.008 326.479 379.34 326.479V326.479Z" fill="#0000CC"/>
<path d="M292.818 404.041V384.04C292.818 381.279 290.579 379.04 287.818 379.04H273.506C272.251 374.452 270.432 370.1 268.129 366.056L278.248 355.934C280.2 353.981 280.2 350.816 278.247 348.864L264.104 334.721C262.152 332.769 258.986 332.768 257.034 334.72L246.912 344.839C242.869 342.536 238.516 340.717 233.928 339.462V325.15C233.928 322.389 231.689 320.15 228.928 320.15H208.926C206.165 320.15 203.926 322.389 203.926 325.15V339.462C199.338 340.717 194.986 342.536 190.942 344.839L180.82 334.72C178.867 332.768 175.702 332.768 173.75 334.721L159.606 348.864C157.654 350.816 157.653 353.982 159.605 355.934L169.724 366.056C167.421 370.099 165.602 374.452 164.347 379.04H150.035C147.274 379.04 145.035 381.279 145.035 384.04V404.042C145.035 406.803 147.274 409.042 150.035 409.042H164.347C165.602 413.63 167.421 417.982 169.724 422.026L159.605 432.148C157.653 434.101 157.653 437.266 159.606 439.218L173.75 453.361C175.702 455.313 178.868 455.314 180.82 453.362L190.942 443.243C194.985 445.546 199.338 447.365 203.926 448.62V462.932C203.926 465.693 206.165 467.932 208.926 467.932H228.928C231.689 467.932 233.928 465.693 233.928 462.932V448.62C238.516 447.365 242.868 445.546 246.912 443.243L257.034 453.362C258.987 455.314 262.152 455.314 264.104 453.361L278.247 439.218C280.199 437.266 280.2 434.1 278.248 432.148L268.129 422.026C270.432 417.983 272.251 413.63 273.506 409.042H287.818C290.579 409.041 292.818 406.803 292.818 404.041V404.041ZM218.926 423.954C202.405 423.954 189.012 410.561 189.012 394.04C189.012 377.519 202.405 364.126 218.926 364.126C235.447 364.126 248.84 377.519 248.84 394.04C248.84 410.561 235.447 423.954 218.926 423.954Z" fill="#6C6CFF"/>
<path d="M228.927 472.932H208.925C203.411 472.932 198.925 468.446 198.925 462.932V452.31C196.516 451.484 194.158 450.507 191.868 449.387L184.354 456.898C180.456 460.796 174.112 460.797 170.213 456.897L156.069 442.753C152.172 438.855 152.171 432.512 156.067 428.612L163.579 421.097C162.458 418.807 161.482 416.45 160.656 414.04H150.033C144.519 414.04 140.033 409.554 140.033 404.04V384.04C140.033 378.526 144.519 374.04 150.033 374.04H160.656C161.482 371.631 162.458 369.273 163.579 366.982L156.067 359.468C152.169 355.569 152.17 349.225 156.069 345.326L170.212 331.183C174.11 327.285 180.454 327.284 184.353 331.182L191.867 338.693C194.159 337.572 196.515 336.595 198.924 335.77V325.148C198.924 319.634 203.41 315.148 208.924 315.148H228.926C234.44 315.148 238.926 319.634 238.926 325.148V335.77C241.334 336.595 243.691 337.572 245.983 338.693L253.497 331.182C257.395 327.285 263.739 327.285 267.638 331.182L281.782 345.327C285.681 349.224 285.681 355.568 281.783 359.468L274.271 366.982C275.392 369.273 276.369 371.63 277.194 374.04H287.817C293.331 374.04 297.817 378.526 297.817 384.04V404.041C297.817 409.555 293.331 414.041 287.817 414.041H277.194C276.368 416.45 275.392 418.808 274.271 421.098L281.782 428.612C285.679 432.512 285.678 438.855 281.781 442.754L267.637 456.898C263.738 460.796 257.394 460.795 253.495 456.899L245.981 449.388C243.691 450.508 241.333 451.485 238.924 452.311V462.933C238.927 468.445 234.441 472.932 228.927 472.932V472.932ZM190.943 438.243C191.79 438.243 192.642 438.458 193.416 438.898C197.142 441.02 201.122 442.669 205.245 443.797C207.418 444.392 208.925 446.366 208.925 448.619V462.931H228.927V448.62C228.927 446.367 230.434 444.392 232.607 443.798C236.731 442.669 240.711 441.021 244.436 438.899C246.393 437.787 248.853 438.115 250.445 439.708L260.567 449.826L274.711 435.683L264.593 425.56C263.001 423.967 262.67 421.506 263.785 419.55C265.907 415.824 267.556 411.845 268.683 407.722C269.278 405.548 271.252 404.041 273.506 404.041H287.818V384.04H273.506C271.253 384.04 269.278 382.533 268.683 380.359C267.555 376.237 265.907 372.256 263.784 368.53C262.67 366.573 263.001 364.113 264.593 362.52L274.712 352.398L260.568 338.254L250.445 348.373C248.853 349.965 246.393 350.296 244.436 349.182C240.707 347.058 236.728 345.41 232.608 344.284C230.435 343.689 228.927 341.714 228.927 339.461V325.149H208.925V339.461C208.925 341.714 207.418 343.69 205.244 344.284C201.124 345.41 197.145 347.058 193.416 349.182C191.46 350.296 188.999 349.967 187.407 348.373L177.285 338.255L163.141 352.398L173.259 362.52C174.851 364.113 175.182 366.573 174.068 368.53C171.945 372.257 170.297 376.237 169.169 380.359C168.574 382.533 166.6 384.04 164.346 384.04H150.034V404.041H164.346C166.599 404.041 168.574 405.548 169.169 407.722C170.297 411.845 171.945 415.825 174.067 419.55C175.182 421.506 174.851 423.967 173.259 425.56L163.14 435.682L177.284 449.827L187.406 439.708C188.37 438.745 189.649 438.243 190.943 438.243V438.243ZM218.926 428.954C199.675 428.954 184.012 413.292 184.012 394.04C184.012 374.789 199.674 359.127 218.926 359.127C238.178 359.127 253.84 374.789 253.84 394.04C253.84 413.292 238.178 428.954 218.926 428.954ZM218.926 369.127C205.189 369.127 194.012 380.303 194.012 394.04C194.012 407.777 205.188 418.954 218.926 418.954C232.664 418.954 243.84 407.777 243.84 394.04C243.84 380.303 232.664 369.127 218.926 369.127Z" fill="#0000CC"/>
<path d="M292.507 192.653V150.818C292.507 148.057 290.268 145.818 287.507 145.818H259.141C256.972 137.891 253.83 130.371 249.85 123.385L269.905 103.323C271.857 101.37 271.857 98.2054 269.904 96.2534L240.322 66.6714C238.37 64.7194 235.204 64.7184 233.252 66.6704L213.19 86.7254C206.204 82.7464 198.684 79.6044 190.757 77.4344V49.0684C190.757 46.3074 188.518 44.0684 185.757 44.0684H143.922C141.161 44.0684 138.922 46.3074 138.922 49.0684V77.4344C130.995 79.6034 123.475 82.7454 116.489 86.7254L96.4279 66.6704C94.4749 64.7184 91.3099 64.7184 89.3579 66.6714L59.7759 96.2524C57.8239 98.2044 57.8229 101.37 59.7749 103.322L79.8299 123.384C75.8509 130.37 72.7089 137.89 70.5389 145.817H42.1729C39.4119 145.817 37.1729 148.056 37.1729 150.817V192.652C37.1729 195.413 39.4119 197.652 42.1729 197.652H70.5389C72.7079 205.579 75.8499 213.099 79.8299 220.085L59.7749 240.147C57.8229 242.1 57.8229 245.265 59.7759 247.217L89.3579 276.799C91.3099 278.751 94.4759 278.752 96.4279 276.8L116.49 256.745C123.476 260.724 130.996 263.866 138.923 266.036V294.402C138.923 297.163 141.162 299.402 143.923 299.402H185.758C188.519 299.402 190.758 297.163 190.758 294.402V266.036C198.685 263.867 206.205 260.725 213.191 256.745L233.253 276.8C235.206 278.752 238.371 278.752 240.323 276.799L269.905 247.217C271.857 245.265 271.858 242.099 269.906 240.147L249.851 220.085C253.83 213.099 256.972 205.579 259.142 197.652H287.508C290.268 197.653 292.507 195.414 292.507 192.653ZM164.84 228.303C133.598 228.303 108.272 202.977 108.272 171.735C108.272 140.493 133.598 115.167 164.84 115.167C196.082 115.167 221.408 140.493 221.408 171.735C221.408 202.977 196.082 228.303 164.84 228.303Z" fill="#FF6C6C"/>
<path d="M185.758 304.401H143.923C138.409 304.401 133.923 299.915 133.923 294.401V269.775C128.227 267.983 122.688 265.688 117.381 262.923L99.9639 280.335C96.0649 284.233 89.7198 284.233 85.8218 280.333L56.2399 250.752C52.3419 246.856 52.3408 240.512 56.2388 236.612L73.6509 219.195C70.8859 213.887 68.5909 208.347 66.7989 202.652H42.1729C36.6589 202.652 32.1729 198.166 32.1729 192.652V150.817C32.1729 145.303 36.6589 140.817 42.1729 140.817H66.7978C68.5898 135.121 70.8849 129.582 73.6499 124.275L56.2379 106.857C52.3409 102.96 52.3409 96.6164 56.2379 92.7164L85.8199 63.1354C89.7189 59.2384 96.0629 59.2374 99.9619 63.1334L117.379 80.5454C122.685 77.7804 128.224 75.4854 133.921 73.6934V49.0684C133.921 43.5544 138.407 39.0684 143.921 39.0684H185.756C191.27 39.0684 195.756 43.5544 195.756 49.0684V73.6944C201.452 75.4864 206.991 77.7814 212.298 80.5454L229.715 63.1344C233.615 59.2374 239.959 59.2384 243.856 63.1364L273.438 92.7174C277.336 96.6174 277.336 102.96 273.438 106.858L256.027 124.276C258.792 129.583 261.087 135.122 262.879 140.818H287.504C293.018 140.818 297.504 145.304 297.504 150.818V192.653C297.504 198.167 293.018 202.653 287.504 202.653H262.879C261.087 208.348 258.792 213.888 256.027 219.196L273.439 236.612C277.336 240.511 277.336 246.855 273.438 250.753L243.856 280.335C241.968 282.224 239.457 283.265 236.786 283.265C234.115 283.265 231.604 282.226 229.715 280.337L212.298 262.925C206.992 265.69 201.453 267.985 195.756 269.777V294.403C195.758 299.915 191.272 304.401 185.758 304.401V304.401ZM116.491 251.745C117.338 251.745 118.19 251.96 118.965 252.4C125.667 256.218 132.825 259.182 140.242 261.213C142.415 261.807 143.922 263.782 143.922 266.035V294.401H185.757V266.035C185.757 263.782 187.264 261.806 189.437 261.213C196.854 259.183 204.013 256.219 210.714 252.4C212.672 251.288 215.131 251.617 216.724 253.209L236.786 273.264L266.368 243.682L246.313 223.621C244.721 222.028 244.39 219.568 245.504 217.611C249.322 210.908 252.287 203.749 254.317 196.333C254.912 194.159 256.886 192.652 259.14 192.652H287.506V150.817H259.14C256.887 150.817 254.912 149.31 254.317 147.136C252.288 139.72 249.323 132.561 245.505 125.859C244.39 123.903 244.721 121.442 246.313 119.849L266.368 99.7864L236.786 70.2054L216.725 90.2604C215.131 91.8514 212.672 92.1814 210.715 91.0694C204.013 87.2514 196.855 84.2874 189.438 82.2564C187.265 81.6624 185.758 79.6874 185.758 77.4344V49.0684H143.923V77.4344C143.923 79.6874 142.416 81.6634 140.243 82.2564C132.826 84.2864 125.667 87.2504 118.966 91.0694C117.01 92.1834 114.549 91.8544 112.956 90.2604L92.8928 70.2064L63.3119 99.7874L83.3668 119.85C84.9588 121.443 85.2899 123.904 84.1749 125.86C80.3569 132.562 77.3919 139.721 75.3629 147.137C74.7679 149.311 72.7939 150.818 70.5399 150.818H42.1729V192.653H70.5399C72.7929 192.653 74.7679 194.16 75.3629 196.334C77.3919 203.75 80.3569 210.909 84.1759 217.612C85.2899 219.569 84.9598 222.029 83.3668 223.622L63.3119 243.683L92.8938 273.265L112.956 253.21C113.917 252.247 115.197 251.745 116.491 251.745V251.745ZM164.84 233.303C154.512 233.303 144.289 230.69 135.276 225.746C132.855 224.418 131.968 221.379 133.297 218.958C134.626 216.537 137.665 215.649 140.085 216.979C147.629 221.117 156.189 223.303 164.841 223.303C193.276 223.303 216.409 200.169 216.409 171.735C216.409 143.301 193.276 120.168 164.841 120.168C136.406 120.168 113.274 143.301 113.274 171.735C113.274 179.753 115.072 187.446 118.619 194.6C119.845 197.074 118.834 200.074 116.36 201.3C113.884 202.525 110.886 201.515 109.659 199.041C105.422 190.494 103.274 181.307 103.274 171.734C103.274 137.786 130.893 110.167 164.841 110.167C198.79 110.167 226.409 137.786 226.409 171.734C226.408 205.684 198.789 233.303 164.84 233.303V233.303Z" fill="#0000CC"/>
<path d="M379.34 105.304C372.048 105.304 366.115 99.371 366.115 92.079C366.115 84.787 372.048 78.854 379.34 78.854C386.632 78.854 392.565 84.787 392.565 92.079C392.565 99.371 386.632 105.304 379.34 105.304ZM379.34 88.854C377.562 88.854 376.115 90.3 376.115 92.079C376.115 93.858 377.562 95.304 379.34 95.304C381.118 95.304 382.565 93.858 382.565 92.079C382.565 90.3 381.118 88.854 379.34 88.854Z" fill="#6C6CFF"/>
<path d="M379.34 477.313C372.048 477.313 366.115 471.38 366.115 464.088C366.115 456.795 372.048 450.862 379.34 450.862C386.632 450.862 392.565 456.795 392.565 464.088C392.565 471.381 386.632 477.313 379.34 477.313ZM379.34 460.863C377.562 460.863 376.115 462.31 376.115 464.089C376.115 465.868 377.562 467.314 379.34 467.314C381.118 467.314 382.565 465.868 382.565 464.089C382.565 462.31 381.118 460.863 379.34 460.863Z" fill="#FF9D33"/>
<path d="M218.926 49.0682C211.634 49.0682 205.701 43.1352 205.701 35.8432C205.701 28.5502 211.634 22.6172 218.926 22.6172C226.218 22.6172 232.151 28.5502 232.151 35.8432C232.151 43.1362 226.218 49.0682 218.926 49.0682ZM218.926 32.6182C217.148 32.6182 215.701 34.0652 215.701 35.8442C215.701 37.6232 217.148 39.0692 218.926 39.0692C220.704 39.0692 222.151 37.6232 222.151 35.8442C222.151 34.0652 220.704 32.6182 218.926 32.6182Z" fill="#6C6CFF"/>
<path d="M329.084 142.996C327.804 142.996 326.525 142.508 325.548 141.531L314.256 130.239C312.303 128.287 312.303 125.121 314.256 123.169L325.548 111.877C327.501 109.924 330.666 109.924 332.619 111.877L343.911 123.169C344.849 124.107 345.375 125.378 345.375 126.704C345.375 128.03 344.848 129.302 343.911 130.239L332.619 141.531C331.644 142.508 330.364 142.996 329.084 142.996ZM324.864 126.704L329.085 130.925L333.306 126.704L329.085 122.483L324.864 126.704Z" fill="#FF6C6C"/>
<path d="M58.7078 350.232C57.3818 350.232 56.1098 349.705 55.1718 348.767L43.8798 337.475C41.9268 335.523 41.9268 332.357 43.8798 330.405L55.1718 319.113C57.1248 317.16 60.2898 317.16 62.2428 319.113L73.5348 330.405C74.4728 331.343 74.9988 332.614 74.9988 333.94C74.9988 335.266 74.4718 336.538 73.5348 337.475L62.2428 348.768C61.3058 349.705 60.0338 350.232 58.7078 350.232V350.232ZM54.4858 333.939L58.7068 338.161L62.9278 333.939L58.7068 329.718L54.4858 333.939Z" fill="#FF9D33"/>
</g>
<defs>
<linearGradient id="paint0_linear" x1="514.74" y1="325.589" x2="-406.352" y2="121.569" gradientUnits="userSpaceOnUse">
<stop offset="0.007" stop-color="#9494FF"/>
<stop offset="0.992" stop-color="#FFE8DC" stop-opacity="0"/>
</linearGradient>
<clipPath id="clip0">
<rect width="512" height="512" fill="white"/>
</clipPath>
</defs>
</svg>
