<svg width="512" height="512" viewBox="0 0 512 512" fill="none" xmlns="http://www.w3.org/2000/svg">
<path d="M256 372C192.037 372 140 319.962 140 256C140 192.038 192.037 140 256 140C319.963 140 372 192.038 372 256C372 267.084 370.435 278.058 367.348 288.614C364.246 299.216 353.141 305.297 342.537 302.196C331.935 299.095 325.854 287.988 328.955 277.386C330.976 270.479 332 263.283 332 256C332 214.093 297.906 180 256 180C214.094 180 180 214.093 180 256C180 297.907 214.094 332 256 332C263.847 332 271.573 330.814 278.965 328.474C289.494 325.141 300.736 330.976 304.068 341.507C307.401 352.038 301.567 363.277 291.036 366.61C279.735 370.187 267.947 372 256 372ZM326 452V441.926C326 439.277 327.668 436.876 330.229 435.819L330.62 435.657C333.214 434.581 336.101 435.095 337.974 436.968L345.096 444.09C356.428 455.423 371.495 461.664 387.523 461.664C403.549 461.664 418.617 455.423 429.95 444.09L444.092 429.948C455.424 418.615 461.665 403.548 461.665 387.522C461.665 371.495 455.424 356.428 444.092 345.096L436.97 337.974C435.096 336.1 434.581 333.213 435.658 330.619L435.809 330.253C436.876 327.67 439.278 326.001 441.927 326.001H452C485.084 326.001 512 299.085 512 266.001V246.001C512 212.917 485.084 186.001 452 186.001H441.927C439.278 186.001 436.875 184.332 435.835 181.814L435.657 181.382C434.58 178.788 435.094 175.901 436.968 174.027L444.091 166.905C467.485 143.511 467.485 105.446 444.091 82.052L429.949 67.91C418.616 56.577 403.549 50.336 387.522 50.336C371.495 50.336 356.427 56.577 345.095 67.91L337.974 75.031C336.099 76.906 333.209 77.42 330.627 76.347L330.25 76.191C327.667 75.125 325.999 72.724 325.999 70.074V60C325.999 26.916 299.083 0 265.999 0H245.999C212.915 0 185.999 26.916 185.999 60V70.074C185.999 72.723 184.331 75.124 181.77 76.181L181.379 76.343C178.787 77.421 175.898 76.906 174.025 75.032L166.903 67.91C155.571 56.577 140.504 50.336 124.476 50.336C108.45 50.336 93.382 56.577 82.049 67.91L67.909 82.052C44.515 105.446 44.515 143.511 67.91 166.906L75.031 174.027C76.905 175.902 77.42 178.789 76.312 181.457L76.191 181.749C75.125 184.332 72.722 186.001 70.073 186.001H60C26.916 186.001 0 212.917 0 246.001V266.001C0 299.085 26.916 326.001 60 326.001H70.073C72.722 326.001 75.124 327.67 76.165 330.188L76.343 330.62C77.42 333.214 76.906 336.101 75.031 337.975L67.91 345.097C56.577 356.43 50.336 371.497 50.336 387.524C50.336 403.55 56.577 418.618 67.909 429.95L82.051 444.092C93.384 455.425 108.451 461.666 124.478 461.666C140.505 461.666 155.573 455.425 166.905 444.092L174.026 436.971C175.899 435.096 178.79 434.582 181.373 435.655L181.75 435.811C184.333 436.877 186.001 439.278 186.001 441.928V452C186.001 485.084 212.917 512 246.001 512H266.001C299.084 512 326 485.084 326 452ZM145.741 408.684L138.619 415.807C134.842 419.584 129.82 421.664 124.477 421.664C119.135 421.664 114.113 419.583 110.335 415.806L96.193 401.664C92.415 397.886 90.335 392.864 90.335 387.522C90.335 382.18 92.415 377.157 96.193 373.38L103.315 366.258C116.675 352.897 120.589 332.896 113.291 315.297L113.161 314.983C105.891 297.376 88.978 286 70.073 286H60C48.972 286 40 277.028 40 266V246C40 234.972 48.972 226 60 226H70.073C88.977 226 105.89 214.624 113.189 196.952L113.282 196.725C120.595 179.121 116.682 159.109 103.315 145.741L96.194 138.62C88.395 130.822 88.395 118.134 96.194 110.335L110.335 96.193C114.113 92.416 119.136 90.335 124.478 90.335C129.821 90.335 134.842 92.415 138.62 96.193L145.743 103.316C159.112 116.683 179.125 120.594 196.734 113.278L197.016 113.161C214.623 105.892 226 88.979 226 70.074V60C226 48.972 234.972 40 246 40H266C277.028 40 286 48.972 286 60V70.074C286 88.979 297.377 105.892 315.006 113.172L315.276 113.284C332.878 120.594 352.89 116.682 366.259 103.317L373.381 96.194C377.158 92.417 382.18 90.337 387.523 90.337C392.865 90.337 397.887 92.418 401.665 96.195L415.807 110.337C423.606 118.135 423.606 130.823 415.808 138.621L408.685 145.744C395.319 159.111 391.407 179.123 398.689 196.654L398.839 197.019C406.109 214.624 423.022 226 441.927 226H452C463.028 226 472 234.972 472 246V266C472 277.028 463.028 286 452 286H441.927C423.023 286 406.11 297.376 398.838 314.983L398.708 315.297C391.409 332.896 395.323 352.897 408.684 366.258L415.807 373.38C419.584 377.157 421.664 382.18 421.664 387.522C421.664 392.864 419.584 397.886 415.806 401.664L401.665 415.806C397.887 419.583 392.864 421.664 387.522 421.664C382.179 421.664 377.158 419.584 373.38 415.806L366.257 408.683C352.889 395.318 332.876 391.407 315.266 398.721L314.984 398.838C297.377 406.108 286 423.021 286 441.926V452C286 463.028 277.028 472 266 472H246C234.972 472 226 463.028 226 452V441.926C226 423.021 214.623 406.108 196.994 398.828L196.724 398.716C190.834 396.27 184.677 395.08 178.587 395.08C166.477 395.081 154.637 399.79 145.741 408.684Z" fill="url(#paint0_linear)"/>
<defs>
<linearGradient id="paint0_linear" x1="256" y1="0" x2="256" y2="512" gradientUnits="userSpaceOnUse">
<stop stop-color="#FFBF3F"/>
<stop offset="1" stop-color="#FF6A8F"/>
</linearGradient>
</defs>
</svg>
