<svg width="512" height="512" viewBox="0 0 512 512" fill="none" xmlns="http://www.w3.org/2000/svg">
<path d="M418.651 431.634C410.075 375.405 372.882 327.689 320.457 305.645C363.136 270.098 368.914 206.683 333.367 164.004C297.82 121.325 234.405 115.547 191.726 151.094C149.047 186.641 143.269 250.056 178.816 292.735C182.72 297.425 187.045 301.741 191.726 305.645C141.943 326.765 105.719 370.989 94.8116 423.954C92.7906 433.847 99.1816 443.511 109.075 445.531C118.968 447.552 128.632 441.161 130.652 431.268C144.805 362.011 212.426 317.33 281.692 331.483C334.099 342.189 374.318 384.356 382.538 437.211C383.946 446.189 391.736 452.772 400.824 452.662H403.658C413.595 450.981 420.306 441.582 418.651 431.634ZM192 228.571C192 193.225 220.654 164.571 256 164.571C291.346 164.571 320 193.225 320 228.571C320 263.917 291.346 292.571 256 292.571C220.654 292.571 192 263.918 192 228.571Z" fill="#B93D5C"/>
<path d="M256 512C114.615 512 0 397.385 0 256C0 114.615 114.615 0 256 0C397.385 0 512 114.615 512 256C512 397.385 397.385 512 256 512ZM256 36.571C134.811 36.571 36.571 134.811 36.571 256C36.571 377.189 134.811 475.429 256 475.429C377.189 475.429 475.429 377.189 475.429 256C475.429 134.811 377.189 36.571 256 36.571Z" fill="#B93D5C"/>
</svg>
