<svg width="512" height="512" viewBox="0 0 512 512" fill="none" xmlns="http://www.w3.org/2000/svg">
<path d="M392 405.272H63.6001V106.728H448.4V348.872L392 405.272Z" fill="#F6EFEA"/>
<path d="M63.6001 106.728H448.396V174.396H63.6001V106.728Z" fill="#FF5050"/>
<path d="M107.608 152.168C114.019 152.168 119.216 146.971 119.216 140.56C119.216 134.149 114.019 128.952 107.608 128.952C101.197 128.952 96 134.149 96 140.56C96 146.971 101.197 152.168 107.608 152.168Z" fill="#0B607E"/>
<path d="M154.384 152.168C160.795 152.168 165.992 146.971 165.992 140.56C165.992 134.149 160.795 128.952 154.384 128.952C147.973 128.952 142.776 134.149 142.776 140.56C142.776 146.971 147.973 152.168 154.384 152.168Z" fill="#FEED48"/>
<path d="M201.164 152.168C207.575 152.168 212.772 146.971 212.772 140.56C212.772 134.149 207.575 128.952 201.164 128.952C194.753 128.952 189.556 134.149 189.556 140.56C189.556 146.971 194.753 152.168 201.164 152.168Z" fill="#7ADB29"/>
<path d="M448.4 348.872H392V405.272L448.4 348.872Z" fill="#EEE1DC"/>
<path d="M165.356 333.264C200.506 333.264 229 304.77 229 269.62C229 234.47 200.506 205.976 165.356 205.976C130.206 205.976 101.712 234.47 101.712 269.62C101.712 304.77 130.206 333.264 165.356 333.264Z" fill="#0B607E"/>
<path d="M165.356 288.092C180.917 288.092 193.532 275.477 193.532 259.916C193.532 244.355 180.917 231.74 165.356 231.74C149.795 231.74 137.18 244.355 137.18 259.916C137.18 275.477 149.795 288.092 165.356 288.092Z" fill="#F6EFEA"/>
<path d="M165.356 288.092C156.187 288.092 147.3 291.257 140.194 297.051C133.089 302.846 128.201 310.915 126.356 319.896C137.51 328.561 151.232 333.264 165.356 333.264C179.48 333.264 193.202 328.561 204.356 319.896C202.511 310.915 197.623 302.846 190.518 297.051C183.412 291.257 174.525 288.092 165.356 288.092V288.092Z" fill="#7ADB29"/>
<path d="M330.216 227.74H267.172C265.315 227.74 263.535 227.003 262.222 225.69C260.909 224.377 260.172 222.597 260.172 220.74C260.172 218.884 260.909 217.103 262.222 215.79C263.535 214.478 265.315 213.74 267.172 213.74H330.216C332.072 213.74 333.853 214.478 335.166 215.79C336.478 217.103 337.216 218.884 337.216 220.74C337.216 222.597 336.478 224.377 335.166 225.69C333.853 227.003 332.072 227.74 330.216 227.74V227.74Z" fill="#0B607E"/>
<path d="M414.708 272H267.172C265.315 272 263.535 271.262 262.222 269.95C260.909 268.637 260.172 266.857 260.172 265C260.172 263.143 260.909 261.363 262.222 260.05C263.535 258.738 265.315 258 267.172 258H414.708C416.564 258 418.345 258.738 419.658 260.05C420.97 261.363 421.708 263.143 421.708 265C421.708 266.857 420.97 268.637 419.658 269.95C418.345 271.262 416.564 272 414.708 272Z" fill="#0B607E"/>
<path d="M414.708 316.26H267.172C265.315 316.26 263.535 315.523 262.222 314.21C260.909 312.897 260.172 311.117 260.172 309.26C260.172 307.404 260.909 305.623 262.222 304.31C263.535 302.998 265.315 302.26 267.172 302.26H414.708C416.564 302.26 418.345 302.998 419.658 304.31C420.97 305.623 421.708 307.404 421.708 309.26C421.708 311.117 420.97 312.897 419.658 314.21C418.345 315.523 416.564 316.26 414.708 316.26V316.26Z" fill="#0B607E"/>
</svg>
