<svg width="513" height="513" viewBox="0 0 513 513" fill="none" xmlns="http://www.w3.org/2000/svg">
<path d="M437.52 331.48C409.637 303.598 376.449 282.957 340.239 270.462C379.021 243.751 404.5 199.048 404.5 148.5C404.5 66.893 338.107 0.5 256.5 0.5C174.893 0.5 108.5 66.893 108.5 148.5C108.5 199.048 133.979 243.751 172.762 270.462C136.552 282.957 103.364 303.598 75.481 331.48C27.129 379.833 0.5 444.12 0.5 512.5H135C287 512.5 137.397 512.5 256.5 512.5C375.603 512.5 210 512.5 404.5 512.5H512.5C512.5 444.12 485.871 379.833 437.52 331.48Z" fill="#1C868E" fill-opacity="0.8"/>
</svg>
